<svg width="481" height="1078" viewBox="0 0 481 1078" fill="none" xmlns="http://www.w3.org/2000/svg">
<rect width="480.255" height="1076.17" fill="black" fill-opacity="0" transform="translate(0.0830078 0.878906)"/>
<rect width="480.255" height="921.017" fill="black" fill-opacity="0" transform="translate(0.0830078 0.878906)"/>
<rect width="480.255" height="921.017" fill="black" fill-opacity="0" transform="translate(0.0830078 0.878906)"/>
<rect width="480.255" height="921.017" fill="black" fill-opacity="0" transform="translate(0.0830078 0.878906)"/>
<rect width="480.255" height="921.017" fill="black" fill-opacity="0" transform="translate(0.0830078 0.878906)"/>
<rect width="480.255" height="921.017" fill="black" fill-opacity="0" transform="translate(0.0830078 0.878906)"/>
<g opacity="0.7">
<rect width="480.255" height="921.017" fill="black" fill-opacity="0" transform="translate(0.0830078 0.878906)"/>
<path opacity="0.7" fill-rule="evenodd" clip-rule="evenodd" d="M59.6652 14.408C30.9931 14.408 7.75325 37.6535 7.75325 66.32V862.313C7.75325 890.986 30.9928 914.225 59.6652 914.225H420.756C449.423 914.225 472.668 890.986 472.668 862.313V66.32C472.668 37.6478 449.423 14.408 420.756 14.408H59.6652ZM0.0830078 66.32C0.0830078 33.4179 26.7563 6.73779 59.6652 6.73779H420.756C453.658 6.73779 480.338 33.4111 480.338 66.32V862.313C480.338 895.222 453.658 921.896 420.756 921.896H59.6652C26.7566 921.896 0.0830078 895.222 0.0830078 862.313V66.32Z" fill="#3D3D3D"/>
<path opacity="0.7" d="M418.183 173.131H62.2392C55.7618 173.131 50.5156 167.884 50.5156 161.407V16.4374C50.5094 9.96007 55.7618 4.71387 62.2392 4.71387H418.183C424.66 4.71387 429.906 9.96007 429.906 16.4374V161.407C429.906 167.878 424.66 173.131 418.183 173.131Z" fill="#F9F9F9"/>
<path opacity="0.7" fill-rule="evenodd" clip-rule="evenodd" d="M62.2383 8.54914C57.8757 8.54914 54.3458 12.0808 54.3499 16.4339L54.3499 161.407C54.3499 165.766 57.8791 169.296 62.2383 169.296H418.182C422.54 169.296 426.07 165.762 426.07 161.407V16.4376C426.07 12.0783 422.541 8.54914 418.182 8.54914H62.2383ZM46.6797 16.4394C46.6724 7.83865 53.6469 0.878906 62.2383 0.878906H418.182C426.777 0.878906 433.741 7.84214 433.741 16.4376V161.407C433.741 169.995 426.779 176.966 418.182 176.966H62.2383C53.6429 176.966 46.6797 170.003 46.6797 161.407V16.4394Z" fill="#3D3D3D"/>
<path opacity="0.7" fill-rule="evenodd" clip-rule="evenodd" d="M56.3738 231.358C55.2528 231.358 54.3441 232.268 54.3441 233.388V856.498C54.3441 857.619 55.2537 858.528 56.3738 858.528H424.047C425.158 858.528 426.075 857.621 426.077 856.491V233.388C426.077 232.267 425.167 231.358 424.047 231.358H56.3738ZM46.6738 233.388C46.6738 228.037 51.0113 223.688 56.3738 223.688H424.047C429.398 223.688 433.747 228.026 433.747 233.388V856.498L433.747 856.505C433.737 861.847 429.408 866.198 424.047 866.198H56.3738C51.0228 866.198 46.6738 861.861 46.6738 856.498V233.388Z" fill="#3D3D3D"/>
<path opacity="0.7" fill-rule="evenodd" clip-rule="evenodd" d="M103.59 280.863C102.469 280.863 101.56 281.773 101.56 282.893V448.804C101.56 449.925 102.47 450.834 103.59 450.834H376.831C377.945 450.834 378.859 449.93 378.861 448.797V282.893C378.861 281.772 377.952 280.863 376.831 280.863H103.59ZM93.8896 282.893C93.8896 277.542 98.2271 273.193 103.59 273.193H376.831C382.182 273.193 386.531 277.53 386.531 282.893V448.811C386.521 454.161 382.189 458.504 376.831 458.504H103.59C98.2386 458.504 93.8896 454.166 93.8896 448.804V282.893Z" fill="#3D3D3D"/>
<path opacity="0.7" d="M378.855 716.719H299.635C297.517 716.719 295.8 718.436 295.8 720.554V799.242C295.8 801.36 297.517 803.077 299.635 803.077H378.855C380.973 803.077 382.69 801.36 382.69 799.242V720.554C382.69 718.436 380.973 716.719 378.855 716.719Z" fill="#2687E9"/>
<path opacity="0.7" d="M180.78 716.719H101.56C99.4417 716.719 97.7246 718.436 97.7246 720.554V799.242C97.7246 801.36 99.4417 803.077 101.56 803.077H180.78C182.898 803.077 184.615 801.36 184.615 799.242V720.554C184.615 718.436 182.898 716.719 180.78 716.719Z" fill="#2687E9"/>
<path opacity="0.7" d="M180.78 568.959H101.56C99.4417 568.959 97.7246 570.676 97.7246 572.794V602.237C97.7246 604.355 99.4417 606.072 101.56 606.072H180.78C182.898 606.072 184.615 604.355 184.615 602.237V572.794C184.615 570.676 182.898 568.959 180.78 568.959Z" fill="#F58832"/>
<path opacity="0.7" d="M279.821 716.719H200.601C198.483 716.719 196.766 718.436 196.766 720.554V749.997C196.766 752.115 198.483 753.832 200.601 753.832H279.821C281.939 753.832 283.656 752.115 283.656 749.997V720.554C283.656 718.436 281.939 716.719 279.821 716.719Z" fill="#2687E9"/>
<path opacity="0.7" d="M180.78 618.216H101.56C99.4417 618.216 97.7246 619.933 97.7246 622.051V651.494C97.7246 653.612 99.4417 655.329 101.56 655.329H180.78C182.898 655.329 184.615 653.612 184.615 651.494V622.051C184.615 619.933 182.898 618.216 180.78 618.216Z" fill="#2687E9"/>
<path opacity="0.7" d="M279.821 568.959H200.601C198.483 568.959 196.766 570.676 196.766 572.794V602.237C196.766 604.355 198.483 606.072 200.601 606.072H279.821C281.939 606.072 283.656 604.355 283.656 602.237V572.794C283.656 570.676 281.939 568.959 279.821 568.959Z" fill="#2687E9"/>
<path opacity="0.7" d="M180.78 667.468H101.56C99.4417 667.468 97.7246 669.185 97.7246 671.303V700.74C97.7246 702.858 99.4417 704.575 101.56 704.575H180.78C182.898 704.575 184.615 702.858 184.615 700.74V671.303C184.615 669.185 182.898 667.468 180.78 667.468Z" fill="#2687E9"/>
<path opacity="0.7" d="M279.821 618.216H200.601C198.483 618.216 196.766 619.933 196.766 622.051V651.494C196.766 653.612 198.483 655.329 200.601 655.329H279.821C281.939 655.329 283.656 653.612 283.656 651.494V622.051C283.656 619.933 281.939 618.216 279.821 618.216Z" fill="#2687E9"/>
<path opacity="0.7" d="M279.821 667.468H200.601C198.483 667.468 196.766 669.185 196.766 671.303V700.74C196.766 702.858 198.483 704.575 200.601 704.575H279.821C281.939 704.575 283.656 702.858 283.656 700.74V671.303C283.656 669.185 281.939 667.468 279.821 667.468Z" fill="#2687E9"/>
<path opacity="0.7" d="M378.855 618.216H299.635C297.517 618.216 295.8 619.933 295.8 622.051V651.494C295.8 653.612 297.517 655.329 299.635 655.329H378.855C380.973 655.329 382.69 653.612 382.69 651.494V622.051C382.69 619.933 380.973 618.216 378.855 618.216Z" fill="#2687E9"/>
<path opacity="0.7" d="M378.855 667.468H299.635C297.517 667.468 295.8 669.185 295.8 671.303V700.74C295.8 702.858 297.517 704.575 299.635 704.575H378.855C380.973 704.575 382.69 702.858 382.69 700.74V671.303C382.69 669.185 380.973 667.468 378.855 667.468Z" fill="#2687E9"/>
<path opacity="0.7" d="M378.855 568.959H299.635C297.517 568.959 295.8 570.676 295.8 572.794V602.237C295.8 604.355 297.517 606.072 299.635 606.072H378.855C380.973 606.072 382.69 604.355 382.69 602.237V572.794C382.69 570.676 380.973 568.959 378.855 568.959Z" fill="#2687E9"/>
<path opacity="0.7" d="M279.821 765.971H200.601C198.483 765.971 196.766 767.688 196.766 769.806V799.249C196.766 801.367 198.483 803.084 200.601 803.084H279.821C281.939 803.084 283.656 801.367 283.656 799.249V769.806C283.656 767.688 281.939 765.971 279.821 765.971Z" fill="#2687E9"/>
</g>
<rect width="205.895" height="21.2324" fill="black" fill-opacity="0" transform="translate(141.123 354.428)"/>
<path d="M143.777 375.382H141.123V355.257H143.777V375.382Z" fill="#9D9D9D"/>
<path d="M150.645 360.429L150.725 362.309C151.869 360.874 153.36 360.15 155.204 360.15C158.365 360.15 159.961 361.932 159.986 365.502V375.382H157.431V365.483C157.425 364.407 157.178 363.609 156.689 363.089C156.206 362.576 155.451 362.316 154.431 362.316C153.602 362.316 152.872 362.538 152.247 362.978C151.622 363.417 151.133 363.998 150.781 364.722V375.382H148.226V360.429H150.645Z" fill="#9D9D9D"/>
<path d="M172.551 371.416C172.551 370.723 172.291 370.191 171.771 369.808C171.252 369.424 170.342 369.096 169.049 368.818C167.756 368.539 166.729 368.211 165.968 367.822C165.207 367.432 164.644 366.974 164.279 366.442C163.914 365.91 163.735 365.273 163.735 364.537C163.735 363.312 164.255 362.272 165.288 361.425C166.321 360.577 167.651 360.15 169.259 360.15C170.955 360.15 172.328 360.59 173.386 361.462C174.444 362.334 174.97 363.454 174.97 364.821H172.396C172.396 364.122 172.099 363.516 171.505 363.009C170.911 362.501 170.163 362.248 169.259 362.248C168.331 362.248 167.601 362.452 167.076 362.854C166.55 363.262 166.29 363.788 166.29 364.444C166.29 365.063 166.531 365.527 167.02 365.842C167.509 366.158 168.393 366.455 169.668 366.739C170.942 367.024 171.975 367.364 172.773 367.76C173.565 368.156 174.153 368.632 174.537 369.189C174.92 369.746 175.112 370.426 175.112 371.231C175.112 372.567 174.58 373.637 173.51 374.441C172.439 375.246 171.054 375.648 169.352 375.648C168.152 375.648 167.094 375.437 166.172 375.011C165.251 374.584 164.533 373.996 164.007 373.235C163.487 372.474 163.228 371.651 163.228 370.767H165.783C165.826 371.626 166.172 372.301 166.81 372.808C167.447 373.315 168.294 373.563 169.346 373.563C170.311 373.563 171.091 373.365 171.672 372.975C172.26 372.592 172.551 372.072 172.551 371.416Z" fill="#9D9D9D"/>
<path d="M178.453 356.464C178.453 356.049 178.577 355.697 178.831 355.412C179.084 355.128 179.462 354.985 179.956 354.985C180.451 354.985 180.829 355.128 181.089 355.412C181.348 355.697 181.478 356.049 181.478 356.464C181.478 356.878 181.348 357.225 181.089 357.503C180.829 357.782 180.451 357.918 179.956 357.918C179.462 357.918 179.084 357.782 178.831 357.503C178.583 357.225 178.453 356.878 178.453 356.464ZM181.219 375.382H178.663V360.43H181.219V375.382Z" fill="#9D9D9D"/>
<path d="M192.54 362.724C192.15 362.662 191.735 362.625 191.284 362.625C189.607 362.625 188.469 363.336 187.869 364.766V375.382H185.308V360.429H187.795L187.838 362.155C188.679 360.819 189.867 360.15 191.401 360.15C191.896 360.15 192.274 360.212 192.534 360.342V362.724H192.54Z" fill="#9D9D9D"/>
<path d="M203.57 375.382C203.422 375.085 203.304 374.559 203.211 373.804C202.024 375.041 200.601 375.654 198.955 375.654C197.483 375.654 196.27 375.239 195.33 374.404C194.383 373.569 193.913 372.511 193.913 371.231C193.913 369.672 194.507 368.465 195.689 367.605C196.87 366.745 198.541 366.312 200.687 366.312H203.174V365.137C203.174 364.246 202.908 363.528 202.37 363.002C201.838 362.47 201.046 362.211 200.007 362.211C199.097 362.211 198.33 362.439 197.712 362.903C197.093 363.367 196.784 363.924 196.784 364.574H194.21C194.21 363.825 194.476 363.108 195.002 362.408C195.528 361.709 196.252 361.165 197.161 360.757C198.07 360.348 199.066 360.15 200.155 360.15C201.881 360.15 203.23 360.583 204.208 361.443C205.185 362.303 205.692 363.491 205.729 365.001V371.886C205.729 373.26 205.903 374.349 206.255 375.159V375.382H203.57ZM199.326 373.433C200.131 373.433 200.885 373.223 201.609 372.808C202.327 372.394 202.846 371.855 203.168 371.193V368.125H201.164C198.033 368.125 196.462 369.04 196.462 370.878C196.462 371.682 196.728 372.307 197.266 372.759C197.798 373.21 198.485 373.433 199.326 373.433Z" fill="#9D9D9D"/>
<path d="M225.446 371.416C225.446 370.723 225.186 370.191 224.667 369.808C224.147 369.424 223.238 369.096 221.945 368.818C220.652 368.539 219.625 368.211 218.864 367.822C218.103 367.432 217.54 366.974 217.175 366.442C216.81 365.91 216.63 365.273 216.63 364.537C216.63 363.312 217.15 362.272 218.183 361.425C219.216 360.577 220.546 360.15 222.155 360.15C223.85 360.15 225.223 360.59 226.281 361.462C227.339 362.334 227.865 363.454 227.865 364.821H225.292C225.292 364.122 224.995 363.516 224.401 363.009C223.807 362.501 223.058 362.248 222.155 362.248C221.227 362.248 220.497 362.452 219.971 362.854C219.445 363.262 219.185 363.788 219.185 364.444C219.185 365.063 219.427 365.527 219.915 365.842C220.404 366.158 221.289 366.455 222.563 366.739C223.838 367.024 224.871 367.364 225.669 367.76C226.461 368.156 227.049 368.632 227.432 369.189C227.816 369.746 228.007 370.426 228.007 371.231C228.007 372.567 227.475 373.637 226.405 374.441C225.335 375.246 223.949 375.648 222.248 375.648C221.048 375.648 219.99 375.437 219.068 375.011C218.146 374.584 217.428 373.996 216.903 373.235C216.383 372.474 216.123 371.651 216.123 370.767H218.678C218.721 371.626 219.068 372.301 219.705 372.808C220.342 373.315 221.19 373.563 222.242 373.563C223.207 373.563 223.986 373.365 224.568 372.975C225.149 372.585 225.446 372.072 225.446 371.416Z" fill="#9D9D9D"/>
<path d="M237.54 375.66C235.511 375.66 233.865 374.992 232.591 373.662C231.317 372.332 230.686 370.55 230.686 368.323V367.853C230.686 366.368 230.97 365.044 231.533 363.881C232.102 362.718 232.894 361.802 233.909 361.147C234.93 360.491 236.031 360.157 237.219 360.157C239.161 360.157 240.677 360.8 241.753 362.081C242.83 363.361 243.368 365.193 243.368 367.581V368.645H233.234C233.272 370.117 233.705 371.311 234.527 372.221C235.35 373.13 236.402 373.582 237.67 373.582C238.573 373.582 239.341 373.396 239.965 373.031C240.59 372.66 241.141 372.171 241.611 371.565L243.17 372.784C241.927 374.695 240.046 375.66 237.54 375.66ZM237.225 362.254C236.192 362.254 235.325 362.631 234.626 363.38C233.927 364.129 233.494 365.186 233.327 366.541H240.819V366.35C240.745 365.05 240.392 364.042 239.767 363.33C239.143 362.613 238.295 362.254 237.225 362.254Z" fill="#9D9D9D"/>
<path d="M255.562 373.904C254.566 375.073 253.106 375.661 251.182 375.661C249.586 375.661 248.374 375.197 247.538 374.269C246.703 373.341 246.283 371.974 246.276 370.155V360.423H248.831V370.087C248.831 372.351 249.753 373.489 251.597 373.489C253.552 373.489 254.851 372.759 255.494 371.305V360.43H258.049V375.382H255.618L255.562 373.904Z" fill="#9D9D9D"/>
<path d="M274.944 373.575C275.854 373.575 276.652 373.297 277.338 372.746C278.019 372.196 278.396 371.503 278.471 370.674H280.889C280.846 371.534 280.549 372.344 280.005 373.117C279.46 373.891 278.737 374.509 277.827 374.967C276.918 375.425 275.959 375.66 274.944 375.66C272.909 375.66 271.288 374.98 270.088 373.619C268.888 372.257 268.281 370.402 268.281 368.044V367.618C268.281 366.164 268.547 364.865 269.086 363.732C269.618 362.6 270.385 361.722 271.387 361.091C272.389 360.46 273.571 360.15 274.932 360.15C276.608 360.15 278 360.651 279.114 361.66C280.221 362.662 280.815 363.967 280.889 365.57H278.471C278.396 364.605 278.031 363.807 277.369 363.188C276.714 362.563 275.897 362.254 274.932 362.254C273.633 362.254 272.624 362.724 271.913 363.658C271.201 364.592 270.842 365.947 270.842 367.717V368.199C270.842 369.925 271.195 371.249 271.907 372.177C272.612 373.105 273.626 373.575 274.944 373.575Z" fill="#9D9D9D"/>
<path d="M292.997 375.382C292.849 375.085 292.731 374.559 292.638 373.804C291.45 375.041 290.028 375.654 288.382 375.654C286.909 375.654 285.697 375.239 284.757 374.404C283.81 373.569 283.34 372.511 283.34 371.231C283.34 369.672 283.934 368.465 285.115 367.605C286.297 366.745 287.967 366.312 290.114 366.312H292.601V365.137C292.601 364.246 292.335 363.528 291.797 363.002C291.265 362.47 290.473 362.211 289.434 362.211C288.524 362.211 287.757 362.439 287.138 362.903C286.52 363.367 286.21 363.924 286.21 364.574H283.637C283.637 363.825 283.903 363.108 284.429 362.408C284.961 361.716 285.678 361.165 286.588 360.757C287.497 360.348 288.493 360.15 289.582 360.15C291.308 360.15 292.657 360.583 293.634 361.443C294.612 362.303 295.119 363.491 295.156 365.001V371.886C295.156 373.26 295.329 374.349 295.682 375.159V375.382H292.997ZM288.753 373.433C289.557 373.433 290.312 373.223 291.036 372.808C291.76 372.394 292.273 371.855 292.595 371.193V368.125H290.59C287.46 368.125 285.889 369.04 285.889 370.878C285.889 371.682 286.155 372.307 286.693 372.759C287.225 373.21 287.912 373.433 288.753 373.433Z" fill="#9D9D9D"/>
<path d="M306.385 362.724C305.995 362.662 305.581 362.625 305.129 362.625C303.453 362.625 302.314 363.336 301.714 364.766V375.382H299.159V360.429H301.646L301.689 362.155C302.531 360.819 303.719 360.15 305.253 360.15C305.748 360.15 306.125 360.212 306.385 360.342V362.724Z" fill="#9D9D9D"/>
<path d="M312.899 356.81V360.429H315.689V362.403H312.899V371.689C312.899 372.289 313.023 372.74 313.27 373.037C313.518 373.334 313.945 373.489 314.545 373.489C314.842 373.489 315.244 373.433 315.764 373.322V375.382C315.089 375.561 314.44 375.654 313.802 375.654C312.658 375.654 311.798 375.308 311.216 374.615C310.635 373.922 310.344 372.944 310.344 371.67V362.396H307.622V360.423H310.344V356.804H312.899V356.81Z" fill="#9D9D9D"/>
<path d="M327.908 375.382C327.76 375.085 327.642 374.559 327.549 373.805C326.362 375.042 324.939 375.654 323.293 375.654C321.821 375.654 320.608 375.24 319.668 374.405C318.721 373.569 318.251 372.512 318.251 371.231C318.251 369.672 318.845 368.466 320.027 367.606C321.208 366.746 322.879 366.313 325.025 366.313H327.512V365.137C327.512 364.246 327.246 363.529 326.708 363.003C326.176 362.471 325.384 362.211 324.345 362.211C323.435 362.211 322.668 362.44 322.05 362.904C321.431 363.368 321.122 363.925 321.122 364.574H318.548C318.548 363.826 318.814 363.108 319.34 362.409C319.872 361.716 320.59 361.165 321.499 360.757C322.408 360.349 323.404 360.151 324.493 360.151C326.219 360.151 327.568 360.584 328.545 361.444C329.523 362.304 330.03 363.492 330.067 365.001V371.887C330.067 373.26 330.241 374.349 330.593 375.159V375.382H327.908ZM329.678 354.595C329.678 355.591 329.393 356.396 328.83 357.014C328.261 357.633 327.556 357.942 326.708 357.942C326.331 357.942 326.003 357.899 325.724 357.806C325.446 357.713 325.087 357.528 324.642 357.237C324.196 356.952 323.875 356.779 323.677 356.717C323.479 356.655 323.25 356.624 322.99 356.624C322.613 356.624 322.291 356.767 322.025 357.058C321.759 357.348 321.623 357.719 321.623 358.171L319.909 358.072C319.909 357.088 320.187 356.272 320.744 355.628C321.301 354.985 322.006 354.663 322.866 354.663C323.188 354.663 323.479 354.707 323.738 354.799C323.998 354.892 324.345 355.072 324.79 355.338C325.229 355.604 325.57 355.777 325.805 355.863C326.04 355.944 326.3 355.987 326.584 355.987C326.98 355.987 327.308 355.833 327.574 355.517C327.84 355.202 327.97 354.843 327.97 354.428L329.678 354.595ZM323.664 373.433C324.468 373.433 325.223 373.223 325.947 372.808C326.671 372.394 327.184 371.856 327.506 371.194V368.125H325.502C322.371 368.125 320.8 369.041 320.8 370.878C320.8 371.683 321.066 372.307 321.604 372.759C322.142 373.211 322.829 373.433 323.664 373.433Z" fill="#9D9D9D"/>
<path d="M333.396 367.766C333.396 366.3 333.686 364.982 334.262 363.813C334.837 362.644 335.641 361.74 336.668 361.103C337.695 360.466 338.871 360.15 340.188 360.15C342.224 360.15 343.869 360.856 345.131 362.266C346.387 363.677 347.018 365.551 347.018 367.89V368.069C347.018 369.523 346.74 370.828 346.183 371.985C345.626 373.142 344.828 374.045 343.789 374.689C342.75 375.332 341.562 375.654 340.213 375.654C338.184 375.654 336.544 374.949 335.289 373.538C334.033 372.128 333.402 370.265 333.402 367.939V367.766H333.396ZM335.963 368.069C335.963 369.727 336.347 371.057 337.12 372.066C337.887 373.068 338.92 373.575 340.207 373.575C341.506 373.575 342.539 373.068 343.3 372.047C344.067 371.026 344.445 369.603 344.445 367.772C344.445 366.133 344.055 364.803 343.275 363.782C342.496 362.761 341.463 362.254 340.17 362.254C338.908 362.254 337.887 362.755 337.114 363.763C336.353 364.766 335.963 366.201 335.963 368.069Z" fill="#9D9D9D"/>
<rect width="214.53" height="158.247" fill="black" fill-opacity="0" transform="translate(142.38 918.805)"/>
<g opacity="0.5">
<rect width="214.53" height="156.463" fill="black" fill-opacity="0" transform="translate(142.38 920.589)"/>
<rect width="214.53" height="156.463" fill="black" fill-opacity="0" transform="translate(142.38 920.589)"/>
<path fill-rule="evenodd" clip-rule="evenodd" d="M142.38 1058.15V920.603H150.05L150.05 1058.15C150.05 1064.02 155.397 1069.38 162.764 1069.38H336.526C343.893 1069.38 349.24 1064.02 349.24 1058.15L349.24 920.589H356.91L356.91 1058.15C356.91 1068.92 347.434 1077.05 336.526 1077.05H162.764C151.856 1077.05 142.38 1068.92 142.38 1058.15Z" fill="#3D3D3D"/>
</g>
<path d="M252.155 930.003L253.04 927.031L254.526 927.484L253.424 930.456L256.809 930.367L256.809 931.873L253.375 931.774L254.457 934.697L252.961 935.15L252.066 932.129L249.399 934.077L248.474 932.857L251.308 931.026L248.543 929.255L249.439 928.025L252.155 930.003Z" fill="#939393"/>
<path d="M252.155 938.682L253.04 935.71L254.526 936.163L253.424 939.135L256.809 939.046L256.809 940.552L253.375 940.453L254.457 943.376L252.961 943.829L252.066 940.808L249.399 942.756L248.474 941.536L251.308 939.706L248.543 937.934L249.439 936.704L252.155 938.682Z" fill="#939393"/>
<path d="M252.155 947.361L253.04 944.39L254.526 944.842L253.424 947.814L256.809 947.725L256.809 949.231L253.375 949.133L254.457 952.055L252.961 952.508L252.066 949.487L249.399 951.435L248.474 950.215L251.308 948.385L248.543 946.614L249.439 945.383L252.155 947.361Z" fill="#939393"/>
<path d="M252.155 956.041L253.04 953.069L254.526 953.521L253.424 956.493L256.809 956.405L256.809 957.91L253.375 957.812L254.457 960.734L252.961 961.187L252.066 958.166L249.399 960.114L248.474 958.894L251.308 957.064L248.543 955.293L249.439 954.063L252.155 956.041Z" fill="#939393"/>
<path d="M252.155 964.72L253.04 961.748L254.526 962.201L253.424 965.172L256.809 965.084L256.809 966.589L253.375 966.491L254.457 969.414L252.961 969.866L252.066 966.845L249.399 968.794L248.474 967.573L251.308 965.743L248.543 963.972L249.439 962.742L252.155 964.72Z" fill="#939393"/>
<path d="M252.155 973.399L253.04 970.427L254.526 970.88L253.424 973.852L256.809 973.763L256.809 975.269L253.375 975.17L254.457 978.093L252.961 978.545L252.066 975.524L249.399 977.473L248.474 976.253L251.308 974.422L248.543 972.651L249.439 971.421L252.155 973.399Z" fill="#939393"/>
<path d="M252.155 982.078L253.04 979.106L254.526 979.559L253.424 982.531L256.809 982.442L256.809 983.948L253.375 983.849L254.457 986.772L252.961 987.225L252.066 984.204L249.399 986.152L248.474 984.932L251.308 983.102L248.543 981.33L249.439 980.1L252.155 982.078Z" fill="#939393"/>
<path d="M252.155 990.757L253.04 987.786L254.526 988.238L253.424 991.21L256.809 991.121L256.809 992.627L253.375 992.529L254.457 995.451L252.961 995.904L252.066 992.883L249.399 994.831L248.474 993.611L251.308 991.781L248.543 990.009L249.439 988.779L252.155 990.757Z" fill="#939393"/>
<path d="M242.481 1003.36L242.481 1001.53L254.615 1001.53L253.267 997.862L254.92 997.862L256.878 1003.08L256.878 1003.36L242.481 1003.36Z" fill="#939393"/>
<path d="M249.665 1009.53L256.809 1010.26L256.809 1017.6L255.126 1017.6L255.126 1011.81L251.22 1011.37C251.633 1012.07 251.84 1012.87 251.84 1013.76C251.84 1015.07 251.407 1016.11 250.541 1016.87C249.681 1017.64 248.517 1018.02 247.047 1018.02C245.571 1018.02 244.407 1017.62 243.554 1016.82C242.708 1016.03 242.285 1014.92 242.285 1013.49C242.285 1012.22 242.636 1011.19 243.338 1010.39C244.04 1009.59 245.01 1009.13 246.25 1009.02L246.25 1010.74C245.43 1010.85 244.81 1011.15 244.391 1011.62C243.977 1012.09 243.771 1012.71 243.771 1013.49C243.771 1014.33 244.059 1015 244.637 1015.48C245.214 1015.96 246.011 1016.2 247.028 1016.2C247.986 1016.2 248.753 1015.94 249.33 1015.42C249.914 1014.9 250.206 1014.21 250.206 1013.34C250.206 1012.55 250.032 1011.92 249.685 1011.47L249.291 1010.99L249.665 1009.53Z" fill="#939393"/>
<path d="M242.481 1029.4L242.481 1020.01L243.79 1020.01L249.301 1024.97C250.134 1025.71 250.81 1026.21 251.328 1026.49C251.853 1026.77 252.394 1026.91 252.952 1026.91C253.7 1026.91 254.313 1026.68 254.792 1026.23C255.271 1025.78 255.51 1025.18 255.51 1024.42C255.51 1023.52 255.251 1022.81 254.733 1022.31C254.221 1021.81 253.506 1021.56 252.588 1021.56L252.588 1019.74C253.906 1019.74 254.972 1020.16 255.786 1021.01C256.599 1021.86 257.006 1023 257.006 1024.42C257.006 1025.75 256.655 1026.81 255.953 1027.58C255.258 1028.35 254.329 1028.74 253.168 1028.74C251.758 1028.74 250.078 1027.84 248.13 1026.04L243.967 1022.21L243.967 1029.4L242.481 1029.4Z" fill="#939393"/>
<path d="M250.531 1033.98L250.531 1035.34C250.544 1036.2 250.77 1036.88 251.21 1037.37C251.649 1037.86 252.243 1038.11 252.991 1038.11C254.67 1038.11 255.51 1037.27 255.51 1035.6C255.51 1034.81 255.284 1034.18 254.831 1033.71C254.385 1033.24 253.791 1033.01 253.05 1033.01L253.05 1031.19C254.185 1031.19 255.126 1031.6 255.874 1032.43C256.629 1033.26 257.006 1034.32 257.006 1035.6C257.006 1036.95 256.648 1038.01 255.933 1038.78C255.218 1039.55 254.224 1039.93 252.952 1039.93C252.328 1039.93 251.725 1039.73 251.141 1039.32C250.557 1038.92 250.121 1038.37 249.832 1037.68C249.583 1038.46 249.17 1039.07 248.592 1039.5C248.015 1039.93 247.31 1040.15 246.477 1040.15C245.191 1040.15 244.171 1039.73 243.416 1038.89C242.662 1038.05 242.285 1036.95 242.285 1035.61C242.285 1034.26 242.649 1033.17 243.377 1032.32C244.105 1031.48 245.066 1031.06 246.26 1031.06L246.26 1032.89C245.506 1032.89 244.902 1033.14 244.45 1033.63C243.997 1034.12 243.771 1034.78 243.771 1035.61C243.771 1036.49 244 1037.16 244.459 1037.63C244.919 1038.09 245.578 1038.33 246.437 1038.33C247.27 1038.33 247.91 1038.07 248.356 1037.56C248.802 1037.05 249.032 1036.31 249.045 1035.34L249.045 1033.98L250.531 1033.98Z" fill="#939393"/>
<rect width="42.37" height="68.7101" fill="black" fill-opacity="0" transform="translate(283.655 971.435)"/>
<circle cx="304.841" cy="992.619" r="21.1846" fill="#88B7E7"/>
<circle cx="304.84" cy="1018.96" r="21.1846" fill="#EDB78D"/>
<rect x="171.019" y="941.984" width="6.82182" height="80.9036" rx="2" fill="#939393" fill-opacity="0.8"/>
</svg>
