<svg width="126" height="312" viewBox="0 0 126 312" fill="none" xmlns="http://www.w3.org/2000/svg">
<rect width="123.226" height="309.227" fill="black" fill-opacity="0" transform="translate(1.56934 1.94348)"/>
<rect width="123.226" height="309.227" fill="black" fill-opacity="0" transform="translate(1.56934 1.94348)"/>
<rect width="52.0329" height="6.68864" fill="black" fill-opacity="0" transform="translate(37.4663 90.5807)"/>
<rect width="52.0329" height="6.68864" fill="black" fill-opacity="0" transform="translate(37.4663 90.5807)"/>
<rect width="52.0329" height="6.68864" fill="black" fill-opacity="0" transform="translate(37.4663 90.5807)"/>
<path d="M37.4663 95.8167V90.853H38.867C39.2998 90.853 39.6806 90.949 40.0127 91.1394C40.3448 91.3298 40.6013 91.6021 40.7823 91.9546C40.9633 92.3072 41.0546 92.7116 41.0561 93.168V93.4844C41.0561 93.9518 40.9664 94.3625 40.7854 94.7151C40.6045 95.0676 40.3464 95.3399 40.0111 95.5271C39.6759 95.716 39.2856 95.812 38.8402 95.8167H37.4663ZM38.121 91.3881V95.2816H38.8103C39.3155 95.2816 39.7074 95.1243 39.9875 94.8111C40.2677 94.4979 40.4093 94.0509 40.4093 93.4702V93.1806C40.4093 92.6156 40.2771 92.1781 40.0127 91.8649C39.7467 91.5517 39.3706 91.3928 38.8843 91.3881H38.121Z" fill="#A0A0A0"/>
<path d="M41.9502 91.1505C41.9502 91.0482 41.9817 90.9616 42.0446 90.8908C42.106 90.82 42.1989 90.7853 42.3216 90.7853C42.4444 90.7853 42.5372 90.82 42.6017 90.8908C42.6663 90.9616 42.6977 91.0482 42.6977 91.1505C42.6977 91.2528 42.6663 91.3377 42.6017 91.4054C42.5372 91.4731 42.4444 91.5077 42.3216 91.5077C42.1989 91.5077 42.106 91.4747 42.043 91.4054C41.9817 91.3377 41.9502 91.2528 41.9502 91.1505ZM42.6316 95.8168H42.0006V92.1294H42.6316V95.8168Z" fill="#A0A0A0"/>
<path d="M43.4907 93.9424C43.4907 93.3664 43.6229 92.91 43.8889 92.57C44.1549 92.2301 44.5074 92.0601 44.9465 92.0601C45.3966 92.0601 45.7475 92.2191 45.9994 92.537L46.0293 92.1278H46.6053V95.7286C46.6053 96.2055 46.4636 96.5816 46.1803 96.8571C45.8971 97.1325 45.5193 97.2694 45.0425 97.2694C44.7765 97.2694 44.5168 97.2127 44.2619 97.0994C44.0069 96.9861 43.8118 96.8303 43.678 96.632L44.0054 96.2543C44.276 96.5879 44.6065 96.7548 44.9968 96.7548C45.3037 96.7548 45.543 96.6682 45.7145 96.4951C45.886 96.322 45.9726 96.0796 45.9726 95.7648V95.4501C45.7208 95.7412 45.3761 95.886 44.9402 95.886C44.5074 95.886 44.158 95.7129 43.892 95.3651C43.6245 95.0157 43.4907 94.542 43.4907 93.9424ZM44.125 94.0132C44.125 94.4287 44.2099 94.756 44.3799 94.9937C44.5499 95.2313 44.7891 95.3494 45.096 95.3494C45.4942 95.3494 45.7853 95.1684 45.9726 94.808V93.124C45.779 92.7715 45.4894 92.5952 45.1039 92.5952C44.797 92.5952 44.5578 92.7148 44.3846 92.9525C44.2115 93.1917 44.125 93.5458 44.125 94.0132Z" fill="#A0A0A0"/>
<path d="M47.5605 91.1505C47.5605 91.0482 47.592 90.9616 47.655 90.8908C47.7179 90.82 47.8108 90.7853 47.9335 90.7853C48.0563 90.7853 48.1491 90.82 48.2137 90.8908C48.2782 90.9616 48.3097 91.0482 48.3097 91.1505C48.3097 91.2528 48.2782 91.3377 48.2137 91.4054C48.1491 91.4731 48.0563 91.5077 47.9335 91.5077C47.8108 91.5077 47.7179 91.4731 47.655 91.4054C47.592 91.3377 47.5605 91.2528 47.5605 91.1505ZM48.2436 95.8168H47.6125V92.1294H48.2436V95.8168Z" fill="#A0A0A0"/>
<path d="M50.1088 91.2355V92.1294H50.7965V92.6173H50.1088V94.9071C50.1088 95.0551 50.1387 95.1668 50.2 95.2408C50.2614 95.3148 50.3669 95.351 50.5132 95.351C50.5856 95.351 50.6864 95.3368 50.8138 95.31V95.8184C50.6486 95.864 50.4865 95.886 50.3307 95.886C50.049 95.886 49.8365 95.8011 49.6933 95.6311C49.5501 95.4611 49.4777 95.2172 49.4777 94.904V92.6157H48.8057V92.1278H49.4777V91.2355H50.1088Z" fill="#A0A0A0"/>
<path d="M53.0644 95.886C52.5639 95.886 52.1579 95.7208 51.8431 95.3934C51.5299 95.0645 51.3726 94.6254 51.3726 94.0746V93.9597C51.3726 93.5946 51.4418 93.2672 51.5819 92.9792C51.7219 92.6912 51.9171 92.4677 52.1689 92.3041C52.4207 92.142 52.693 92.0601 52.9857 92.0601C53.4657 92.0601 53.8387 92.2175 54.1047 92.5338C54.3706 92.8502 54.5028 93.3018 54.5028 93.8904V94.1533H52.0037C52.0131 94.5184 52.1185 94.8111 52.3231 95.0346C52.5262 95.2581 52.7858 95.3698 53.099 95.3698C53.3209 95.3698 53.5113 95.3242 53.6656 95.2329C53.8198 95.1416 53.9552 95.022 54.0716 94.8709L54.4572 95.1715C54.1456 95.6484 53.6829 95.886 53.0644 95.886ZM52.9857 92.5779C52.7307 92.5779 52.5183 92.6708 52.3452 92.8565C52.172 93.0422 52.065 93.3018 52.0241 93.6355H53.8717V93.5883C53.8544 93.2672 53.7663 93.0201 53.6121 92.8439C53.4578 92.6676 53.2485 92.5779 52.9857 92.5779Z" fill="#A0A0A0"/>
<path d="M59.109 94.8394C59.109 94.6695 59.0445 94.5373 58.917 94.4428C58.7879 94.3484 58.5645 94.2666 58.245 94.1989C57.9255 94.1297 57.6721 94.0478 57.4848 93.9518C57.2976 93.8558 57.1591 93.7425 57.0694 93.6103C56.9796 93.4781 56.934 93.3207 56.934 93.1397C56.934 92.8376 57.0615 92.581 57.318 92.3733C57.5745 92.1656 57.9003 92.0601 58.2985 92.0601C58.7171 92.0601 59.0555 92.1687 59.3167 92.3843C59.5764 92.5999 59.707 92.8753 59.707 93.2121H59.0728C59.0728 93.039 58.9988 92.8911 58.8525 92.7652C58.7061 92.6393 58.5204 92.5779 58.2985 92.5779C58.0687 92.5779 57.8893 92.6283 57.7603 92.7274C57.6312 92.8266 57.5667 92.9588 57.5667 93.1193C57.5667 93.2719 57.6265 93.3868 57.7477 93.4639C57.8657 93.5426 58.0829 93.6166 58.3976 93.6874C58.7124 93.7582 58.9674 93.8417 59.1625 93.9392C59.3577 94.0368 59.5024 94.1548 59.5969 94.2918C59.6913 94.4287 59.7385 94.5971 59.7385 94.7954C59.7385 95.1259 59.6063 95.3887 59.3435 95.5886C59.0807 95.7869 58.7376 95.8876 58.3174 95.8876C58.0215 95.8876 57.7603 95.8357 57.5336 95.7302C57.3054 95.6248 57.1292 95.48 57.0001 95.2927C56.8711 95.1038 56.8081 94.9008 56.8081 94.6821H57.4392C57.4502 94.893 57.5352 95.0614 57.6926 95.1857C57.85 95.31 58.0593 95.3714 58.319 95.3714C58.5582 95.3714 58.7486 95.3226 58.8934 95.2266C59.0366 95.129 59.109 95 59.109 94.8394Z" fill="#A0A0A0"/>
<path d="M62.8393 95.4532C62.5938 95.7428 62.2334 95.886 61.7581 95.886C61.3647 95.886 61.0656 95.7711 60.8595 95.5429C60.6533 95.3147 60.5494 94.9763 60.5479 94.5294V92.1293H61.1789V94.5121C61.1789 95.0708 61.4071 95.3509 61.8604 95.3509C62.342 95.3509 62.663 95.1715 62.822 94.8127V92.1293H63.4531V95.8183H62.8519L62.8393 95.4532Z" fill="#A0A0A0"/>
<path d="M66.6884 95.8168C66.6522 95.7444 66.6223 95.6154 66.6003 95.4281C66.3075 95.7318 65.9566 95.8845 65.5505 95.8845C65.187 95.8845 64.888 95.7806 64.655 95.576C64.4221 95.3714 64.3057 95.1102 64.3057 94.7939C64.3057 94.4098 64.452 94.1108 64.7432 93.8984C65.0359 93.6859 65.4467 93.5789 65.9755 93.5789H66.5892V93.2909C66.5892 93.0705 66.5231 92.8943 66.3909 92.7637C66.2587 92.633 66.0652 92.5669 65.8086 92.5669C65.5836 92.5669 65.3947 92.6236 65.2421 92.7369C65.0894 92.8502 65.0139 92.9887 65.0139 93.1492H64.3796C64.3796 92.9651 64.4457 92.7873 64.5764 92.6157C64.707 92.4442 64.8848 92.3073 65.1083 92.2081C65.3318 92.109 65.5773 92.0586 65.8464 92.0586C66.2713 92.0586 66.6034 92.1656 66.8458 92.3781C67.0881 92.5905 67.2109 92.8833 67.2203 93.2563V94.9544C67.2203 95.2927 67.2644 95.5619 67.3494 95.7617V95.8168H66.6884ZM65.6418 95.3368C65.8401 95.3368 66.0274 95.2865 66.2037 95.1842C66.3815 95.0819 66.509 94.9497 66.5892 94.786V94.0274H66.0951C65.3223 94.0274 64.9352 94.254 64.9352 94.7057C64.9352 94.904 65.0013 95.0583 65.1335 95.17C65.2657 95.2817 65.4341 95.3368 65.6418 95.3368Z" fill="#A0A0A0"/>
<path d="M72.085 94.8394C72.085 94.6694 72.0204 94.5372 71.893 94.4428C71.7639 94.3484 71.5404 94.2665 71.2209 94.1989C70.9015 94.1312 70.6481 94.0494 70.4608 93.9533C70.2719 93.8573 70.1335 93.744 70.0437 93.6118C69.954 93.4796 69.9084 93.3223 69.9084 93.1413C69.9084 92.8391 70.0359 92.5826 70.2924 92.3748C70.5474 92.1655 70.8747 92.0616 71.2729 92.0616C71.6915 92.0616 72.0299 92.1702 72.2911 92.3858C72.5524 92.6015 72.6814 92.8769 72.6814 93.2137H72.0472C72.0472 93.0405 71.9732 92.8926 71.8269 92.7667C71.6805 92.6408 71.4948 92.5794 71.2729 92.5794C71.0431 92.5794 70.8637 92.6298 70.7346 92.7289C70.6056 92.8281 70.5411 92.9603 70.5411 93.1208C70.5411 93.2735 70.6009 93.3884 70.7221 93.4655C70.8417 93.5426 71.0604 93.6166 71.3752 93.6874C71.6899 93.7582 71.9449 93.8416 72.14 93.9392C72.3352 94.0368 72.48 94.1548 72.5744 94.2917C72.6688 94.4286 72.7161 94.597 72.7161 94.7953C72.7161 95.1258 72.5839 95.3887 72.321 95.5885C72.0582 95.7868 71.7151 95.8875 71.2949 95.8875C70.999 95.8875 70.7378 95.8356 70.5112 95.7302C70.283 95.6247 70.1067 95.4799 69.9776 95.2927C69.8486 95.1054 69.7856 94.9023 69.7856 94.6836H70.4167C70.4278 94.8945 70.5127 95.0629 70.6701 95.1872C70.8275 95.3115 71.0368 95.3729 71.2965 95.3729C71.5357 95.3729 71.7261 95.3241 71.8709 95.2281C72.0126 95.129 72.085 94.9999 72.085 94.8394Z" fill="#A0A0A0"/>
<path d="M75.0673 95.886C74.5669 95.886 74.1608 95.7208 73.8461 95.3934C73.5329 95.0645 73.3755 94.6254 73.3755 94.0762V93.9597C73.3755 93.5946 73.4447 93.2672 73.5848 92.9792C73.7249 92.6912 73.92 92.4677 74.1718 92.3041C74.4236 92.142 74.6959 92.0601 74.9886 92.0601C75.4686 92.0601 75.8416 92.2175 76.1076 92.5338C76.3736 92.8502 76.5058 93.3018 76.5058 93.8904V94.1533H74.0066C74.016 94.5168 74.1215 94.8111 74.3261 95.0346C74.5307 95.2581 74.7888 95.3698 75.1019 95.3698C75.3238 95.3698 75.5143 95.3242 75.6685 95.2329C75.8227 95.1416 75.9581 95.022 76.0745 94.8709L76.4601 95.1715C76.1501 95.6484 75.6858 95.886 75.0673 95.886ZM74.9902 92.5779C74.7352 92.5779 74.5228 92.6708 74.3497 92.8565C74.1766 93.0422 74.0695 93.3018 74.0286 93.6355H75.8763V93.5883C75.8589 93.2672 75.7708 93.0201 75.6166 92.8439C75.4623 92.666 75.253 92.5779 74.9902 92.5779Z" fill="#A0A0A0"/>
<path d="M77.8328 92.1293L77.8533 92.5936C78.135 92.2395 78.5032 92.0616 78.9581 92.0616C79.7387 92.0616 80.1305 92.5007 80.1384 93.3805V95.8183H79.5073V93.3758C79.5042 93.1098 79.4444 92.9131 79.3248 92.7856C79.2051 92.6581 79.0194 92.5952 78.7676 92.5952C78.563 92.5952 78.3836 92.6502 78.2294 92.7588C78.0752 92.8674 77.954 93.0106 77.8674 93.1885V95.8167H77.2363V92.1293H77.8328Z" fill="#A0A0A0"/>
<path d="M81.72 92.5748C82.0001 92.2317 82.3636 92.0601 82.8106 92.0601C83.5912 92.0601 83.9831 92.4992 83.9909 93.379V95.8168H83.3599V93.3758C83.3567 93.1098 83.2969 92.9131 83.1773 92.7856C83.0577 92.6582 82.872 92.5952 82.6202 92.5952C82.4156 92.5952 82.2362 92.6503 82.0819 92.7589C81.9277 92.8675 81.8065 93.0107 81.72 93.1885V95.8168H81.0889V90.5807H81.72V92.5748Z" fill="#A0A0A0"/>
<path d="M87.2123 95.8168C87.1761 95.7444 87.1462 95.6154 87.1242 95.4281C86.8315 95.7318 86.4805 95.8845 86.0745 95.8845C85.7109 95.8845 85.4119 95.7806 85.179 95.576C84.946 95.3714 84.8296 95.1102 84.8296 94.7939C84.8296 94.4098 84.976 94.1108 85.2671 93.8984C85.5598 93.6859 85.9706 93.5789 86.4994 93.5789H87.1132V93.2909C87.1132 93.0705 87.0471 92.8943 86.9149 92.7637C86.7827 92.633 86.5891 92.5669 86.3326 92.5669C86.1075 92.5669 85.9187 92.6236 85.766 92.7369C85.6133 92.8502 85.5378 92.9887 85.5378 93.1492H84.9036C84.9036 92.9651 84.9697 92.7873 85.1003 92.6157C85.2309 92.4442 85.4087 92.3073 85.6322 92.2081C85.8557 92.109 86.1012 92.0586 86.3703 92.0586C86.7953 92.0586 87.1273 92.1656 87.3697 92.3781C87.6105 92.5905 87.7348 92.8833 87.7443 93.2563V94.9544C87.7443 95.2927 87.7883 95.5619 87.8733 95.7617V95.8168H87.2123ZM86.1657 95.3368C86.364 95.3368 86.5513 95.2865 86.7276 95.1842C86.9039 95.0819 87.0329 94.9497 87.1132 94.786V94.0274H86.619C85.8463 94.0274 85.4591 94.254 85.4591 94.7057C85.4591 94.904 85.5252 95.0583 85.6574 95.17C85.7896 95.2817 85.958 95.3368 86.1657 95.3368Z" fill="#A0A0A0"/>
<path d="M88.7124 95.4862C88.7124 95.3776 88.7455 95.2863 88.81 95.2139C88.8745 95.1415 88.9721 95.1053 89.1011 95.1053C89.2302 95.1053 89.3293 95.1415 89.3954 95.2139C89.4631 95.2863 89.4962 95.3776 89.4962 95.4862C89.4962 95.5916 89.4631 95.6782 89.3954 95.749C89.3278 95.8198 89.2302 95.8545 89.1011 95.8545C88.9721 95.8545 88.8745 95.8198 88.81 95.749C88.7455 95.6782 88.7124 95.5916 88.7124 95.4862ZM88.7155 92.4755C88.7155 92.3669 88.7486 92.2757 88.8131 92.2033C88.8777 92.1309 88.9752 92.0947 89.1043 92.0947C89.2333 92.0947 89.3325 92.1309 89.3986 92.2033C89.4647 92.2757 89.4993 92.3669 89.4993 92.4755C89.4993 92.581 89.4663 92.6675 89.3986 92.7383C89.3309 92.8092 89.2333 92.8438 89.1043 92.8438C88.9752 92.8438 88.8777 92.8092 88.8131 92.7383C88.7486 92.6675 88.7155 92.581 88.7155 92.4755Z" fill="#A0A0A0"/>
<rect width="123.226" height="309.227" fill="black" fill-opacity="0" transform="translate(1.56934 1.94348)"/>
<rect width="123.226" height="238.153" fill="black" fill-opacity="0" transform="translate(1.56934 1.94348)"/>
<rect width="123.226" height="238.153" fill="black" fill-opacity="0" transform="translate(1.56934 1.94348)"/>
<rect width="123.226" height="238.153" fill="black" fill-opacity="0" transform="translate(1.56934 1.94348)"/>
<rect width="123.226" height="238.153" fill="black" fill-opacity="0" transform="translate(1.56934 1.94348)"/>
<g opacity="0.7">
<rect width="123.226" height="238.153" fill="black" fill-opacity="0" transform="translate(1.56934 1.94348)"/>
<path opacity="0.7" d="M110.259 240.097H16.1053C8.07672 240.097 1.56934 233.589 1.56934 225.561V18.0071C1.56934 9.98019 8.07672 3.47119 16.1053 3.47119H110.259C118.286 3.47119 124.795 9.97857 124.795 18.0071V225.561C124.795 233.589 118.286 240.097 110.259 240.097Z" stroke="#3D3D3D" stroke-width="2" stroke-miterlimit="10" stroke-linejoin="round"/>
<path opacity="0.7" d="M109.588 45.8578H16.7761C15.0872 45.8578 13.7192 44.4899 13.7192 42.8009V5.00037C13.7176 3.31142 15.0872 1.94348 16.7761 1.94348H109.588C111.277 1.94348 112.645 3.31142 112.645 5.00037V42.8009C112.645 44.4883 111.277 45.8578 109.588 45.8578Z" fill="#F9F9F9" stroke="#3D3D3D" stroke-width="2" stroke-miterlimit="10"/>
<path opacity="0.7" d="M111.117 225.574H15.247C14.4034 225.574 13.7178 224.89 13.7178 224.045V61.5698C13.7178 60.7261 14.4017 60.0405 15.247 60.0405H111.117C111.961 60.0405 112.646 60.7245 112.646 61.5698V224.045C112.645 224.888 111.961 225.574 111.117 225.574Z" stroke="#3D3D3D" stroke-width="2" stroke-miterlimit="10"/>
<path opacity="0.7" d="M98.8058 119.268H27.5585C26.7149 119.268 26.0293 118.584 26.0293 117.739V74.4781C26.0293 73.6344 26.7133 72.9488 27.5585 72.9488H98.8058C99.6495 72.9488 100.335 73.6328 100.335 74.4781V117.739C100.333 118.584 99.6495 119.268 98.8058 119.268Z" stroke="#3D3D3D" stroke-width="2" stroke-miterlimit="10"/>
<path opacity="0.7" d="M100.333 187.597H77.6768V210.115H100.333V187.597Z" fill="#2687E9"/>
<path opacity="0.7" d="M48.6858 187.597H26.0293V210.115H48.6858V187.597Z" fill="#2687E9"/>
<path opacity="0.7" d="M48.6858 149.069H26.0293V158.747H48.6858V149.069Z" fill="#F58832"/>
<path opacity="0.7" d="M74.5105 187.597H51.854V197.275H74.5105V187.597Z" fill="#2687E9"/>
<path opacity="0.7" d="M48.6858 161.913H26.0293V171.59H48.6858V161.913Z" fill="#2687E9"/>
<path opacity="0.7" d="M74.5105 149.069H51.854V158.747H74.5105V149.069Z" fill="#2687E9"/>
<path opacity="0.7" d="M48.6858 174.755H26.0293V184.431H48.6858V174.755Z" fill="#2687E9"/>
<path opacity="0.7" d="M74.5105 161.913H51.854V171.59H74.5105V161.913Z" fill="#2687E9"/>
<path opacity="0.7" d="M74.5105 174.755H51.854V184.431H74.5105V174.755Z" fill="#2687E9"/>
<path opacity="0.7" d="M100.333 161.913H77.6768V171.59H100.333V161.913Z" fill="#2687E9"/>
<path opacity="0.7" d="M100.333 174.755H77.6768V184.431H100.333V174.755Z" fill="#2687E9"/>
<path opacity="0.7" d="M100.333 149.069H77.6768V158.747H100.333V149.069Z" fill="#2687E9"/>
<path opacity="0.7" d="M74.5105 200.44H51.854V210.117H74.5105V200.44Z" fill="#2687E9"/>
</g>
<rect width="59.559" height="70.0735" fill="black" fill-opacity="0" transform="translate(29.5469 241.097)"/>
<rect width="59.559" height="70.0735" fill="black" fill-opacity="0" transform="translate(29.5469 241.097)"/>
<path opacity="0.5" fill-rule="evenodd" clip-rule="evenodd" d="M29.5469 305.923V241.101H31.6765V305.923C31.6765 307.553 33.1607 309.041 35.2062 309.041H83.4465C85.492 309.041 86.9762 307.553 86.9762 305.923V241.097H89.1059V305.923C89.1059 308.913 86.4748 311.17 83.4465 311.17H35.2062C32.1779 311.17 29.5469 308.913 29.5469 305.923Z" fill="#3D3D3D"/>
<path d="M60.0226 260.707L60.2686 259.882L60.6812 260.007L60.3749 260.833L61.315 260.808V261.226L60.3613 261.199L60.662 262.01L60.2467 262.136L59.9979 261.297L59.2578 261.838L59.001 261.499L59.7878 260.991L59.0201 260.499L59.2686 260.158L60.0226 260.707Z" fill="#939393"/>
<path d="M60.0226 263.116L60.2686 262.292L60.6812 262.417L60.3749 263.241L61.315 263.216V263.636L60.3613 263.608L60.662 264.418L60.2467 264.546L59.9979 263.708L59.2578 264.246L59.001 263.908L59.7878 263.4L59.0201 262.908L59.2686 262.568L60.0226 263.116Z" fill="#939393"/>
<path d="M60.0226 265.526L60.2686 264.702L60.6812 264.827L60.3749 265.651L61.315 265.626V266.045L60.3613 266.018L60.662 266.828L60.2467 266.956L59.9979 266.117L59.2578 266.656L59.001 266.317L59.7878 265.809L59.0201 265.318L59.2686 264.976L60.0226 265.526Z" fill="#939393"/>
<path d="M60.0226 267.936L60.2686 267.111L60.6812 267.236L60.3749 268.061L61.315 268.036V268.455L60.3613 268.427L60.662 269.238L60.2467 269.366L59.9979 268.525L59.2578 269.066L59.001 268.727L59.7878 268.219L59.0201 267.728L59.2686 267.386L60.0226 267.936Z" fill="#939393"/>
<path d="M60.0226 270.346L60.2686 269.521L60.6812 269.646L60.3749 270.471L61.315 270.446V270.865L60.3613 270.837L60.662 271.648L60.2467 271.773L59.9979 270.934L59.2578 271.476L59.001 271.137L59.7878 270.629L59.0201 270.137L59.2686 269.796L60.0226 270.346Z" fill="#939393"/>
<path d="M60.0226 272.756L60.2686 271.931L60.6812 272.056L60.3749 272.88L61.315 272.855V273.275L60.3613 273.247L60.662 274.058L60.2467 274.182L59.9979 273.344L59.2578 273.885L59.001 273.547L59.7878 273.039L59.0201 272.547L59.2686 272.206L60.0226 272.756Z" fill="#939393"/>
<path d="M60.0226 275.165L60.2686 274.338L60.6812 274.466L60.3749 275.29L61.315 275.265V275.684L60.3613 275.657L60.662 276.467L60.2467 276.592L59.9979 275.754L59.2578 276.295L59.001 275.956L59.7878 275.448L59.0201 274.957L59.2686 274.616L60.0226 275.165Z" fill="#939393"/>
<path d="M60.0226 277.575L60.2686 276.748L60.6812 276.875L60.3749 277.7L61.315 277.675V278.094L60.3613 278.066L60.662 278.877L60.2467 279.002L59.9979 278.163L59.2578 278.705L59.001 278.366L59.7878 277.858L59.0201 277.367L59.2686 277.025L60.0226 277.575Z" fill="#939393"/>
<path d="M60.0226 279.982L60.2686 279.157L60.6812 279.285L60.3749 280.11L61.315 280.085V280.501L60.3613 280.476L60.662 281.287L60.2467 281.412L59.9979 280.573L59.2578 281.115L59.001 280.776L59.7878 280.268L59.0201 279.777L59.2686 279.435L60.0226 279.982Z" fill="#939393"/>
<path d="M60.0226 282.392L60.2686 281.567L60.6812 281.692L60.3749 282.52L61.315 282.495V282.911L60.3613 282.886L60.662 283.697L60.2467 283.822L59.9979 282.983L59.2578 283.525L59.001 283.186L59.7878 282.678L59.0201 282.186L59.2686 281.845L60.0226 282.392Z" fill="#939393"/>
<path d="M60.0226 284.802L60.2686 283.977L60.6812 284.102L60.3749 284.929L61.315 284.904V285.321L60.3613 285.293L60.662 286.106L60.2467 286.231L59.9979 285.393L59.2578 285.934L59.001 285.596L59.7878 285.087L59.0201 284.596L59.2686 284.255L60.0226 284.802Z" fill="#939393"/>
<path d="M60.0226 287.211L60.2686 286.387L60.6812 286.512L60.3749 287.339L61.315 287.314V287.731L60.3613 287.703L60.662 288.516L60.2467 288.641L59.9979 287.803L59.2578 288.344L59.001 288.005L59.7878 287.497L59.0201 287.003L59.2686 286.662L60.0226 287.211Z" fill="#939393"/>
<path d="M57.3379 290.712V290.204H60.7063L60.3321 289.185H60.791L61.3346 290.632V290.712H57.3379Z" fill="#939393"/>
<path d="M59.3326 292.425L61.3162 292.628V294.666H60.8489V293.055L59.7643 292.936C59.8789 293.13 59.9364 293.352 59.9364 293.599C59.9364 293.96 59.8162 294.249 59.5758 294.463C59.3373 294.677 59.0138 294.782 58.606 294.782C58.1962 294.782 57.8728 294.671 57.6363 294.449C57.4011 294.23 57.2837 293.919 57.2837 293.522C57.2837 293.172 57.3811 292.883 57.576 292.661C57.7709 292.439 58.0405 292.314 58.3847 292.284V292.761C58.1571 292.792 57.985 292.872 57.8684 293.003C57.7537 293.136 57.6962 293.308 57.6962 293.522C57.6962 293.758 57.7765 293.941 57.9367 294.074C58.0969 294.21 58.3181 294.277 58.6005 294.277C58.8664 294.277 59.0796 294.205 59.2398 294.058C59.402 293.913 59.483 293.722 59.483 293.483C59.483 293.261 59.4347 293.089 59.3381 292.964L59.2287 292.828L59.3326 292.425Z" fill="#939393"/>
<path d="M57.3379 297.942V295.335H57.7013L59.231 296.712C59.4623 296.914 59.6499 297.056 59.7938 297.131C59.9395 297.209 60.0897 297.25 60.2446 297.25C60.4523 297.25 60.6225 297.187 60.7554 297.062C60.8884 296.934 60.9551 296.767 60.9551 296.559C60.9551 296.306 60.8829 296.112 60.7391 295.97C60.5969 295.832 60.3984 295.762 60.1436 295.762V295.257C60.5097 295.257 60.8057 295.376 61.0314 295.61C61.2574 295.846 61.3701 296.162 61.3701 296.559C61.3701 296.928 61.2727 297.22 61.0778 297.434C60.8848 297.65 60.6272 297.758 60.3049 297.758C59.9131 297.758 59.447 297.509 58.9059 297.009L57.7504 295.943V297.942H57.3379Z" fill="#939393"/>
<path d="M59.573 299.21V299.591C59.5766 299.829 59.6396 300.015 59.7615 300.154C59.8836 300.29 60.0485 300.357 60.2559 300.357C60.7223 300.357 60.9555 300.126 60.9555 299.66C60.9555 299.444 60.8925 299.269 60.767 299.138C60.6432 299.008 60.4783 298.944 60.2723 298.944V298.438C60.5874 298.438 60.8489 298.552 61.0566 298.783C61.2659 299.013 61.3706 299.307 61.3706 299.66C61.3706 300.038 61.2715 300.332 61.073 300.543C60.8745 300.757 60.5985 300.862 60.2451 300.862C60.0722 300.862 59.9045 300.807 59.7423 300.693C59.5805 300.582 59.4592 300.432 59.3792 300.237C59.3098 300.457 59.1951 300.626 59.0349 300.743C58.8748 300.862 58.6788 300.923 58.4475 300.923C58.0905 300.923 57.8073 300.807 57.598 300.573C57.3884 300.34 57.2837 300.038 57.2837 299.663C57.2837 299.291 57.3847 298.985 57.5869 298.752C57.7892 298.519 58.056 298.402 58.3875 298.402V298.91C58.1779 298.91 58.0105 298.977 57.8848 299.116C57.759 299.252 57.6962 299.435 57.6962 299.663C57.6962 299.907 57.7601 300.096 57.8875 300.224C58.015 300.354 58.1979 300.418 58.4367 300.418C58.6679 300.418 58.8456 300.346 58.9694 300.204C59.0932 300.063 59.1568 299.857 59.1604 299.591V299.21H59.573Z" fill="#939393"/>
<path d="M74.6509 293.612C77.8991 293.612 80.5322 290.979 80.5322 287.73C80.5322 284.482 77.8991 281.849 74.6509 281.849C71.4027 281.849 68.7695 284.482 68.7695 287.73C68.7695 290.979 71.4027 293.612 74.6509 293.612Z" fill="#88B7E7"/>
<path d="M74.6509 300.924C77.8991 300.924 80.5322 298.291 80.5322 295.043C80.5322 291.795 77.8991 289.162 74.6509 289.162C71.4027 289.162 68.7695 291.795 68.7695 295.043C68.7695 298.291 71.4027 300.924 74.6509 300.924Z" fill="#EDB78D"/>
<path d="M38.8362 242.738H38.0528C37.7462 242.738 37.4976 242.987 37.4976 243.294V264.644C37.4976 264.951 37.7462 265.199 38.0528 265.199H38.8362C39.1429 265.199 39.3915 264.951 39.3915 264.644V243.294C39.3915 242.987 39.1429 242.738 38.8362 242.738Z" fill="#939393" fill-opacity="0.8"/>
<path d="M38.8362 273.672H38.0528C37.7462 273.672 37.4976 273.92 37.4976 274.227V295.577C37.4976 295.884 37.7462 296.132 38.0528 296.132H38.8362C39.1429 296.132 39.3915 295.884 39.3915 295.577V274.227C39.3915 273.92 39.1429 273.672 38.8362 273.672Z" fill="#939393" fill-opacity="0.8"/>
<rect width="29.1256" height="4.92935" fill="black" fill-opacity="0" transform="translate(39.4854 101.462)"/>
<circle cx="41.95" cy="103.927" r="2.46468" fill="#A0A0A0"/>
<circle cx="50.3997" cy="103.927" r="2.46468" fill="#A0A0A0"/>
<circle cx="58.2733" cy="103.927" r="2.46468" fill="#A0A0A0"/>
<circle cx="66.1463" cy="103.927" r="2.46468" fill="#A0A0A0"/>
</svg>
