<svg width="744" height="175" viewBox="0 0 744 175" fill="none" xmlns="http://www.w3.org/2000/svg">
<g opacity="0.95">
<path opacity="0.95" fill-rule="evenodd" clip-rule="evenodd" d="M36.2342 -5.30619e-07L26.0993 6.24031V12.159L41.0522 2.94889L36.2342 -5.30619e-07ZM20.0741 9.95076L6.44993 18.3402C6.16797 18.514 5.84018 18.521 5.54941 18.361C5.25863 18.2011 5.09122 17.9229 5.09122 17.5942V9.43958L-1.07561e-06 6.32203V17.596C-1.07561e-06 19.7694 1.149 21.6976 3.07517 22.7531C3.97393 23.2451 4.97843 23.5059 5.98469 23.5059C7.08964 23.5059 8.18049 23.1947 9.14445 22.6053L25.1671 12.7362L20.0741 9.95076Z" transform="translate(1.98175 151.367)" fill="white"/>
<path opacity="0.95" fill-rule="evenodd" clip-rule="evenodd" d="M22.7105 0.656922C20.8319 -0.36893 18.4228 -0.184626 16.2623 1.14898C12.5774 3.42498 1.51908 10.2478 1.51908 10.2478L-1.07561e-06 11.1693L5.09298 14.2868L19.2088 5.54971C19.4908 5.37758 19.7798 5.37062 20.0688 5.52885C20.3596 5.68881 20.5252 5.96875 20.5252 6.29563V15.0606L25.6182 17.846V6.29563C25.6164 3.72057 24.5573 1.66539 22.7105 0.656922Z" transform="translate(1.98175 145.964)" fill="white"/>
<path opacity="0.95" fill-rule="evenodd" clip-rule="evenodd" d="M11.2187 7.46264C10.8028 11.1609 9.77711 12.4215 7.16013 12.458C6.16797 12.4441 5.47011 12.1972 5.02601 11.7034C4.38102 10.9871 4.19246 9.71604 4.41274 7.58783C4.84802 3.97996 5.93535 2.63939 8.42545 2.63939C9.47048 2.63939 10.1983 2.88282 10.6512 3.38183C11.2839 4.07733 11.4583 5.33617 11.2187 7.46264ZM9.02638 -9.55114e-07C6.95042 -9.55114e-07 5.88776 0.662457 5.10531 1.41185L5.22339 0.36861H2.22399L-6.45365e-07 20.1415H2.99939L3.73074 13.6351C4.28233 14.3167 5.06831 14.9357 6.70546 15.0696V15.0992H7.02619C7.07554 15.0992 7.12136 15.0974 7.16894 15.0974L7.22005 15.0957L7.28173 15.0974C7.3205 15.0991 7.35927 15.0992 7.40156 15.0992C11.4266 15.0992 13.7458 12.6336 14.2921 7.77039L14.3044 7.63825C14.315 7.56001 14.3238 7.48003 14.3326 7.40178C14.641 4.66328 14.2462 2.73329 13.129 1.50053C12.2249 0.504233 10.8451 -9.55114e-07 9.02638 -9.55114e-07Z" transform="translate(44.398 154.508)" fill="white"/>
<path opacity="0.95" fill-rule="evenodd" clip-rule="evenodd" d="M9.68573 9.23093C9.43372 11.4704 8.04682 12.5137 5.32234 12.5137C4.31608 12.5137 3.70809 12.3624 3.41379 12.0372C3.1847 11.7851 3.10539 11.3817 3.1706 10.8062C3.32215 9.46044 4.02001 8.9649 6.15589 8.68323C6.17528 8.68149 7.98866 8.4711 9.77385 8.45546L9.68573 9.23093ZM7.93227 -9.55114e-07C3.77682 -9.55114e-07 1.90528 1.32318 1.25677 4.71892L1.18451 5.09275H4.16276L4.23325 4.87019C4.6932 3.39748 4.94521 2.5855 7.60625 2.5855C8.83632 2.5855 9.60115 2.7698 9.94479 3.14711C10.2091 3.43921 10.2849 3.89998 10.1968 4.68936L10.0399 6.07513C8.94381 6.00037 6.3656 5.91343 4.02882 6.49417C0.913119 7.2679 0.190587 9.66561 0.0372691 11.0253C-0.100188 12.2476 0.143005 13.2126 0.759802 13.8925C1.49467 14.7027 2.71417 15.0974 4.48526 15.0974C6.72159 15.0974 8.10497 14.4541 9.18525 13.6612L9.06189 14.7549H12.0613L13.2508 4.17817C13.3883 2.95758 13.1451 1.99607 12.53 1.31796C11.7159 0.419036 10.2549 -9.55114e-07 7.93227 -9.55114e-07Z" transform="translate(59.9886 154.508)" fill="white"/>
<path opacity="0.95" fill-rule="evenodd" clip-rule="evenodd" d="M9.8804 3.36792C10.5042 4.05472 10.6734 5.31704 10.432 7.46264L9.97204 11.5469C8.48644 12.2389 6.96912 12.2946 6.52679 12.2946C5.30729 12.2946 4.52837 12.0616 4.0737 11.5608C3.47981 10.9071 3.33178 9.69517 3.5785 7.50785C3.93271 4.35205 4.68168 2.64114 7.61058 2.64114C8.70848 2.6394 9.42926 2.87065 9.8804 3.36792ZM11.1069 1.45532C10.3774 0.617249 9.41163 -9.55114e-07 7.38325 -9.55114e-07C3.35821 -9.55114e-07 1.04082 2.45683 0.496275 7.30268C0.179066 10.1159 0.619636 12.2059 1.80389 13.51C2.75199 14.5549 4.16886 15.0835 6.01572 15.0835C6.23425 15.0835 8.01943 15.0644 9.63544 14.4541C9.33057 16.6657 8.80541 17.8168 5.48704 17.8168C3.81464 17.8168 3.0974 17.5612 2.99695 15.9755L2.97756 15.6799H0.00636267L0.00107874 15.9911C-0.0218308 17.4204 0.320048 18.4688 1.04611 19.1973C1.90257 20.0563 3.26834 20.4562 5.34077 20.4562C11.4612 20.4562 12.3599 16.977 12.7952 13.0996L14.2262 0.366872H11.2268L11.1069 1.45532Z" transform="translate(74.3662 154.508)" fill="white"/>
<path opacity="0.95" fill-rule="evenodd" clip-rule="evenodd" d="M10.432 7.46264L9.97204 11.5469C8.4882 12.2389 6.96912 12.2946 6.52679 12.2946C5.30905 12.2946 4.52837 12.0616 4.07546 11.5608C3.48157 10.9071 3.33355 9.69517 3.58026 7.50785C3.93448 4.35205 4.68345 2.64114 7.61412 2.64114C8.71025 2.64114 9.42925 2.87238 9.8804 3.36966C10.5025 4.05472 10.6717 5.31704 10.432 7.46264ZM11.2285 0.370351L11.1069 1.45532C10.3774 0.617249 9.41163 -9.55114e-07 7.38325 -9.55114e-07C3.35821 -9.55114e-07 1.04082 2.45683 0.496281 7.30268C0.180833 10.1159 0.619635 12.2059 1.80388 13.51C2.75199 14.5549 4.16886 15.0835 6.01572 15.0835C6.23425 15.0835 8.01943 15.0644 9.63544 14.4541C9.33057 16.6657 8.80541 17.8168 5.48705 17.8168C3.81465 17.8168 3.0974 17.5612 2.99695 15.9755L2.97756 15.6799H0.00636832L0.00108439 15.9911C-0.0218252 17.4204 0.320047 18.4688 1.0461 19.1973C1.90257 20.0563 3.26834 20.4562 5.34078 20.4562C11.4629 20.4562 12.3599 16.977 12.7952 13.0996L14.2262 0.366872H11.2285V0.370351Z" transform="translate(89.372 154.508)" fill="white"/>
<path opacity="0.95" fill-rule="evenodd" clip-rule="evenodd" d="M7.52124 -9.55114e-07C4.4725 -9.55114e-07 0.875691 0.86589 0.11615 7.62087C-0.209871 10.5228 0.146111 12.4354 1.23872 13.6386C2.14629 14.6401 3.55435 15.1252 5.54396 15.1252C8.08164 15.1252 11.1374 14.5062 12.2477 9.67778L12.3358 9.29178H9.3311L9.26941 9.52999C8.61913 12.0598 7.72214 12.4858 5.95634 12.4858C4.81262 12.4858 4.08304 12.2685 3.65833 11.8008C3.08559 11.1696 2.95695 9.98554 3.21248 7.71476C3.66009 3.72784 4.5377 2.63766 7.29566 2.63766C9.06146 2.63766 9.69941 3.01322 9.76461 5.12926L9.77343 5.43528H12.757L12.7587 5.12057C12.7693 3.31228 12.3816 2.08126 11.5375 1.24667C10.6933 0.408603 9.37868 -9.55114e-07 7.52124 -9.55114e-07Z" transform="translate(104.666 154.508)" fill="white"/>
<path opacity="0.95" fill-rule="evenodd" clip-rule="evenodd" d="M3.48482 5.99341C4.11043 3.16971 5.36692 2.63939 7.56096 2.63939C8.66943 2.63939 9.42897 2.86543 9.88364 3.33141C10.37 3.82869 10.5674 4.61112 10.5463 5.99341H3.48482ZM7.81297 -9.55114e-07C3.20814 -9.55114e-07 0.686327 2.53507 0.0994893 7.75301C-0.200098 10.422 0.175254 12.2946 1.24848 13.4787C2.23888 14.5706 3.81789 15.1009 6.07889 15.1009C10.0123 15.1009 12.3526 13.4717 13.0364 10.2568L13.1174 9.876H10.0898L10.0317 10.1177C9.60872 11.8495 8.68353 12.4632 6.49302 12.4632C5.13255 12.4632 4.26726 12.2146 3.76854 11.6825C3.23457 11.1105 3.03544 10.149 3.13413 8.58065H13.3342L13.3659 8.29897C13.7413 4.95887 13.3712 2.80458 12.2046 1.51791C11.2776 0.49554 9.84135 -9.55114e-07 7.81297 -9.55114e-07Z" transform="translate(118.913 154.508)" fill="white"/>
<path opacity="0.95" fill-rule="evenodd" clip-rule="evenodd" d="M7.6941 -7.16336e-07C6.28781 -7.16336e-07 5.2604 0.389476 4.34578 1.30927L4.45679 0.318188H1.61777L-3.22682e-06 14.7045H2.9994L3.89992 6.6889C4.19246 4.09471 5.14233 3.03583 7.18128 3.03583C7.93201 3.03583 8.33557 3.17492 8.33733 3.17492L8.72151 3.31402L9.06692 0.239945L8.83253 0.15301C8.79199 0.135623 8.40078 -7.16336e-07 7.6941 -7.16336e-07Z" transform="translate(133.765 154.561)" fill="white"/>
<path opacity="0.95" fill-rule="evenodd" clip-rule="evenodd" d="M4.73662 -1.14083e-06H1.73722L0.0648204 14.8801C-0.0937845 16.2919 0.0330984 17.0796 0.507151 17.6012C0.942433 18.0793 1.64734 18.2932 2.79458 18.2932C3.85195 18.2932 5.32521 18.0567 5.38689 18.0463L5.62656 18.008L5.91734 15.4156L5.51201 15.4678C5.008 15.5321 4.18502 15.6295 3.98412 15.6295C3.73564 15.6295 3.21577 15.6295 3.09946 15.5008C3.0554 15.4539 3.01311 15.3234 3.05188 14.9774L4.02994 6.28378H6.94475L7.23552 3.69828H4.32072L4.73662 -1.14083e-06Z" transform="translate(143.556 151.181)" fill="white"/>
<path opacity="0.95" fill-rule="evenodd" clip-rule="evenodd" d="M10.6429 7.48872C10.2482 11.001 8.99871 12.4354 6.33415 12.4354C5.16576 12.4354 4.34982 12.1624 3.84052 11.6026C3.17615 10.8706 2.97171 9.59433 3.19728 7.58609C3.59203 4.07385 4.8415 2.64114 7.50782 2.64114C8.66916 2.64114 9.48157 2.91411 9.99263 3.47746C10.6605 4.21469 10.8685 5.48918 10.6429 7.48872ZM13.8256 6.22988V5.91691C13.8009 4.09819 13.3392 2.6846 12.4475 1.70048C11.4236 0.572043 9.82698 -9.55114e-07 7.7052 -9.55114e-07C3.21844 -9.55114e-07 0.657853 2.53681 0.0956873 7.54088C-0.205662 10.222 0.203186 12.1381 1.34514 13.3969C2.35493 14.508 3.94802 15.0731 6.08213 15.0731C10.6041 15.0731 13.1806 12.5623 13.7375 7.61217C13.7903 7.1288 13.8203 6.66804 13.8256 6.22988Z" transform="translate(151.156 154.508)" fill="white"/>
</g>
<path d="M23.141 0.144934L13.0198 23.7208H6.22006L0.4348 3.90112L0 2.41556H0.144933C3.51281 4.25595 6.42948 6.82196 8.68392 9.92794C9.10665 12.1019 9.54145 14.131 10.1212 16.148L16.4862 0L23.141 0.144934V0.144934Z" transform="translate(7.32288 12.611)" fill="#006CB5"/>
<path d="M18.5635 16.3895C18.5635 21.3052 14.0827 24.4937 7.2829 24.4937C4.79 24.5254 2.31528 24.0657 0 23.141L0.869602 17.7906L1.7392 18.2254C3.62763 19.1112 5.69239 19.5572 7.77809 19.5298C9.65015 19.5298 11.6792 18.8051 11.6792 17.2108C11.6792 16.1963 10.8096 15.4716 8.35782 14.3242C5.90603 13.1769 2.7175 11.2806 2.7175 7.81433C2.7175 3.18854 7.19836 0 13.5875 0C15.5583 0.0212427 17.5124 0.363923 19.3728 1.01453L18.5032 6.07512L17.9234 5.78526C16.4004 5.13081 14.7479 4.83336 13.0923 4.91566C10.6768 4.91566 9.32405 5.93019 9.32405 6.94472C9.32405 7.95926 10.6284 8.82886 12.9474 9.83131C16.8485 11.5705 18.5877 13.5996 18.4428 16.3412L18.5635 16.3895Z" transform="translate(39.3773 12.4178)" fill="#006CB5"/>
<path d="M17.8268 0.03916H12.9112C12.2002 -0.0759891 11.4715 0.0647004 10.8545 0.436218C10.2375 0.807735 9.77225 1.386 9.54145 2.06823L0 23.8082H6.79979C6.79979 23.8082 8.00757 20.9096 8.09211 20.1849H16.3412C16.4862 21.0424 17.0659 23.6512 17.0659 23.6512H22.9961L17.8268 0.03916ZM9.86755 15.3659C11.0753 12.4793 12.1865 9.43567 13.3339 6.54908C13.9136 9.43567 14.6383 12.4793 15.218 15.3659H9.86755Z" transform="translate(57.6147 12.7168)" fill="#006CB5"/>
<path d="M4.04606 0H10.556L6.50992 23.7208H0L4.04606 0Z" transform="translate(29.0145 12.756)" fill="#006CB5"/>
<path d="M0 0H10.9908C12.2952 0 13.4063 0.434799 13.7445 1.88413L15.4837 10.1212C13.2293 7.01521 10.3126 4.44919 6.94472 2.6088H6.79979C6.65486 2.41556 6.50992 2.41556 6.24421 2.31893C4.25975 1.3065 2.16426 0.528292 0 0V0Z" transform="translate(0.523041 12.6119)" fill="#FAA841"/>
<circle cx="20.6783" cy="20.6783" r="20.6783" transform="translate(110.709 2.13968)" fill="#EB001B"/>
<circle cx="20.6783" cy="20.6783" r="20.6783" transform="translate(140.316 1.96884)" fill="#F79E1B" fill-opacity="0.9"/>
<path d="M0 23.7008C0 19.0133 1.39003 14.4309 3.99431 10.5334C6.59859 6.63578 10.3002 3.59799 14.6309 1.80413C18.9617 0.0102691 23.7271 -0.459086 28.3246 0.455415C32.9221 1.36992 37.1452 3.6272 40.4598 6.94182C43.7745 10.2564 46.0317 14.4795 46.9463 19.077C47.8608 23.6745 47.3914 28.44 45.5975 32.7708C43.8037 37.1015 40.7659 40.8031 36.8683 43.4074C32.9707 46.0116 28.3884 47.4017 23.7008 47.4017C17.415 47.4017 11.3866 44.9046 6.94181 40.4599C2.49704 36.0151 0 29.9867 0 23.7008V23.7008Z" transform="translate(211.822 0.14032)" fill="black"/>
<path d="M6.52171 0C5.86976 0.640469 5.02042 1.0417 4.11165 1.13852C3.20287 1.23535 2.28806 1.02207 1.51581 0.533339L0 2.93804C1.31689 3.7649 2.87459 4.12243 4.42025 3.95257C5.96591 3.78272 7.4088 3.09546 8.51471 2.00236L6.52171 0Z" transform="translate(221.693 27.3032)" fill="white"/>
<path d="M6.99367 0.000565217C5.74147 -0.0154551 4.50847 0.309351 3.42668 0.940218C2.34488 1.57109 1.45501 2.48426 0.852311 3.582C0.249612 4.67974 -0.0432212 5.92071 0.00515533 7.17209C0.0535319 8.42346 0.441297 9.63812 1.12694 10.6861L13.6183 5.33395C13.2661 3.83397 12.4231 2.49457 11.2229 1.52835C10.0227 0.562117 8.53426 0.0244111 6.99367 0.000565217V0.000565217ZM2.83924 7.34567C2.82504 7.18067 2.82504 7.01476 2.83924 6.84976C2.85258 6.02162 3.11824 5.21726 3.60076 4.54408C4.08328 3.8709 4.75968 3.36095 5.53965 3.08232C6.31962 2.80368 7.16604 2.76963 7.96587 2.9847C8.7657 3.19978 9.48089 3.65375 10.0159 4.28599L2.83924 7.34567Z" transform="translate(218.489 17.4779)" fill="white"/>
<path d="M2.64953 0V13.3522L4.96066 14.2879L3.86591 16.9639L1.57349 16.0282C1.11665 15.8314 0.726636 15.5064 0.450674 15.0926C0.138966 14.5977 -0.0174582 14.0209 0.00154749 13.4364V0H2.64953Z" transform="translate(233.388 14.3627)" fill="white"/>
<path d="M6.44685 3.24642C7.41259 3.72015 8.15153 4.55691 8.50219 5.57382C8.85285 6.59072 8.7867 7.7051 8.31821 8.67338L10.882 9.90848C11.5764 8.46268 11.7466 6.82044 11.3635 5.26294C10.9804 3.70545 10.0677 2.32959 8.78177 1.37095C7.49585 0.412317 5.91666 -0.0694682 4.31461 0.00809415C2.71256 0.0856565 1.1873 0.717743 0 1.79612L1.87136 3.9014C2.47696 3.33994 3.23934 2.97646 4.05683 2.85944C4.87432 2.74241 5.70806 2.87741 6.44685 3.24642V3.24642Z" transform="translate(240.987 17.4789)" fill="white"/>
<path d="M5.11612 6.66206C4.14797 6.18835 3.40723 5.34997 3.05641 4.33083C2.70559 3.31169 2.77332 2.19501 3.24476 1.22574L0.680985 0C-0.0134761 1.44674 -0.183101 3.08999 0.201183 4.64809C0.585467 6.20619 1.49973 7.5821 2.78727 8.54001C4.0748 9.49792 5.65544 9.97817 7.25824 9.89844C8.86105 9.81871 10.3862 9.18397 11.5723 8.10301L9.70096 5.99772C9.09562 6.56268 8.33204 6.92909 7.51257 7.04783C6.69311 7.16657 5.85692 7.03196 5.11612 6.66206Z" transform="translate(238.828 21.399)" fill="white"/>
<path d="M29.8853 40.3299C40.8766 40.3299 50.9854 31.3144 50.9854 20.3232C51.0046 8.22902 40.8478 0 29.8853 0H20.3807C9.14016 0 0 8.22902 0 20.3232C0.063259 25.6746 2.2427 30.7832 6.06183 34.5322C9.88097 38.2813 15.0291 40.3657 20.3807 40.3299H29.8853Z" transform="translate(289.174 2.0275)" fill="#0079BE"/>
<path d="M18.5393 9.95522e-06C14.8736 -0.00188688 11.2898 1.08349 8.24113 3.11883C5.19247 5.15417 2.81599 8.04801 1.41233 11.4343C0.00867523 14.8205 -0.359083 18.547 0.355584 22.1423C1.07025 25.7376 2.83523 29.0402 5.42723 31.6322C8.01923 34.2242 11.3218 35.9891 14.9171 36.7038C18.5124 37.4185 22.2389 37.0507 25.6251 35.6471C29.0114 34.2434 31.9052 31.8669 33.9406 28.8182C35.9759 25.7696 37.0613 22.1857 37.0594 18.5201C37.0619 16.0873 36.5846 13.6779 35.6548 11.4298C34.7249 9.18169 33.3608 7.13904 31.6406 5.41879C29.9203 3.69854 27.8777 2.33445 25.6296 1.40463C23.3815 0.474799 20.9721 -0.0025137 18.5393 9.95522e-06V9.95522e-06Z" transform="translate(291.14 3.58118)" fill="white"/>
<path d="M0.000198006 10.9816C0.00476213 8.60622 0.725746 6.28743 2.06894 4.32826C3.41213 2.36908 5.31506 0.860621 7.52908 0V21.8481C5.30955 21.0301 3.39598 19.5481 2.04882 17.6037C0.701652 15.6593 -0.013674 13.3471 0.000198006 10.9816V10.9816Z" transform="translate(297.95 11.1197)" fill="#0079BE"/>
<path d="M0.0191823 21.8481V0C2.24061 0.848552 4.15048 2.35433 5.49396 4.31643C6.83745 6.27853 7.55067 8.60367 7.53847 10.9816C7.48863 13.3332 6.74703 15.618 5.40633 17.5506C4.06562 19.4832 2.18522 20.9779 0 21.8481H0.0191823Z" transform="translate(313.852 11.2444)" fill="#0079BE"/>
<path d="M22.6171 3.15221C23.1687 2.7897 23.9253 1.11903 22.9954 0.378265C22.8096 0.241667 22.5931 0.15295 22.365 0.119962C22.1368 0.0869731 21.904 0.110731 21.6872 0.189134C21.2856 0.295737 20.9101 0.483476 20.5839 0.740771C20.2057 1.29241 19.8432 2.60057 20.3948 3.15221C20.736 3.33706 21.1179 3.43386 21.5059 3.43386C21.894 3.43386 22.2759 3.33706 22.6171 3.15221V3.15221ZM14.8311 0.378265C14.4686 2.96308 13.9012 5.37452 13.5387 7.97509C10.749 7.97509 7.78596 8.16422 5.01201 7.97509C5.56365 5.56365 5.94191 2.96308 6.49355 0.551637H3.34134C2.22231 6.49355 1.30817 12.798 0 18.9133H3.15221C3.71961 15.761 4.08211 12.6088 4.82288 9.64576C7.42345 9.64576 10.749 9.45663 13.3496 9.64576C12.798 12.798 12.2463 15.761 11.6789 18.9133H14.8311C15.761 12.6088 16.8801 6.30442 18.1725 0.189134H14.8311V0.378265ZM59.1354 5.75278C58.1484 5.43655 57.0804 5.48724 56.1277 5.89553C55.175 6.30381 54.4018 7.04224 53.9501 7.97509C54.1625 7.2522 54.2842 6.50571 54.3126 5.75278H51.9011C51.3495 10.3865 50.4196 14.642 49.6788 19.1024H52.4685C52.6683 16.2168 53.1648 13.3595 53.9501 10.5757C54.6908 8.52673 56.3615 6.85606 58.9463 7.78596C58.8077 7.1044 58.8735 6.39708 59.1354 5.75278V5.75278ZM60.617 15.761C60.3672 14.918 60.3027 14.0308 60.4278 13.1605C60.5098 11.2838 61.1582 9.47603 62.2876 7.97509C63.7692 6.49355 66.5589 6.85606 68.7812 7.59683C68.8208 6.86059 68.9424 6.13107 69.1437 5.4218C65.4399 4.87016 61.9251 5.23267 60.0653 7.09247C59.0571 8.34453 58.3322 9.80015 57.9404 11.3592C57.5486 12.9182 57.4993 14.5436 57.7957 16.1236C58.7256 19.2758 63.1703 19.4649 66.8741 18.3459C67.0632 17.6051 67.0632 17.0535 67.2524 16.3127C65.2507 17.6051 61.5469 18.1725 60.617 15.761ZM91.5717 5.75278C89.1602 4.44461 87.127 6.49355 86.3863 7.78596C86.5754 7.23432 86.5754 6.30442 86.7645 5.75278H84.3531C83.6123 10.3865 82.8716 14.8311 81.9417 19.1024H84.7156C84.803 17.4852 84.9872 15.8747 85.2672 14.2795C85.8346 10.5757 86.8433 6.49355 91.02 7.78596C91.2092 6.9979 91.3983 6.30442 91.5717 5.75278ZM19.8432 5.75278V5.92615C19.2915 10.3865 18.3616 14.8311 17.6208 19.1024H20.3948C21.1356 14.3741 21.8763 10.0083 22.8062 5.75278H19.8432ZM43.9418 5.4218C43.0424 5.42786 42.1531 5.61205 41.3253 5.96372C40.4976 6.3154 39.7476 6.8276 39.1189 7.47074C37.3659 9.70073 36.567 12.534 36.8966 15.3513C37.4482 19.8116 42.8228 19.6225 47.2674 18.5035C47.3011 17.7499 47.4282 17.0034 47.6456 16.2812C45.7858 17.0219 42.6336 17.9518 40.7896 16.6594C39.308 15.7295 39.308 13.5072 39.8597 11.4583C42.8228 11.2849 45.975 11.4583 48.938 11.4583C49.3664 10.0797 49.4315 8.61393 49.1272 7.2028C48.3391 5.75278 46.1641 5.18538 43.9418 5.4218ZM46.5266 10.1501H40.0488C40.1723 9.26194 40.6178 8.4501 41.3007 7.86893C41.9835 7.28775 42.8562 6.97777 43.7527 6.9979C45.7858 6.9979 47.094 7.78596 46.5266 10.1501ZM33.5553 5.7055C32.4929 5.3708 31.3657 5.29632 30.2685 5.48832C29.1713 5.68032 28.1364 6.13319 27.2508 6.80877C27.2508 6.44627 27.44 6.068 27.44 5.7055H25.0285C24.0986 12.1833 22.8062 18.6768 21.6872 24.9813H24.4769C24.8394 22.5698 25.2177 19.9692 25.7693 17.5578C26.3209 19.9692 30.4031 19.6067 32.2629 18.6768C35.5884 16.6909 38.3781 7.42345 33.5553 5.75278V5.7055ZM31.333 16.4545C29.8514 17.9361 26.3209 17.9361 25.9584 15.3355C25.9566 14.1422 26.1428 12.9561 26.5101 11.8208C26.6992 10.7018 26.8883 9.40934 27.0617 8.47944C28.559 6.6354 32.8145 6.44627 33.1928 9.40934C33.3641 10.6483 33.2879 11.9089 32.9687 13.1183C32.6494 14.3276 32.0935 15.4616 31.333 16.4545ZM101.769 0C101.566 1.9907 101.256 3.96897 100.839 5.92615C94.1722 3.70385 89.9168 8.71586 90.0901 14.8311C89.997 15.961 90.3286 17.085 91.02 17.9834C91.9747 18.7543 93.1397 19.2193 94.3629 19.3177C95.586 19.4162 96.8104 19.1434 97.8761 18.535C98.2543 18.3459 98.6168 17.7942 98.806 17.6051C98.9951 17.416 99.1842 16.8643 99.3576 17.0535C99.2051 17.7251 99.1467 18.4147 99.1842 19.1024H101.407C102.135 12.6859 103.187 6.31028 104.559 0H101.769ZM95.6222 17.4317C95.2322 17.4621 94.8403 17.4042 94.4758 17.2621C94.1113 17.1201 93.7835 16.8976 93.5169 16.6113C93.2503 16.325 93.0517 15.9822 92.9359 15.6085C92.8202 15.2348 92.7902 14.8398 92.8483 14.4529C92.8483 11.1273 94.1407 7.42345 97.1038 7.04519C98.2469 6.92565 99.4011 7.11621 100.445 7.59683C99.5467 11.3164 99.925 17.4317 95.6222 17.4317ZM71.9807 5.75278L71.4133 7.97509C73.084 7.59682 78.096 6.30442 78.6476 8.52673C78.7198 9.23013 78.5943 9.93974 78.2851 10.5757C73.6514 10.1974 69.9317 10.9382 69.0176 14.0904C68.6142 14.9541 68.5322 15.9335 68.7865 16.8523C69.0407 17.771 69.6145 18.5689 70.4046 19.1024C71.6406 19.5849 73.0013 19.6456 74.2753 19.2751C75.5494 18.9045 76.6653 18.1235 77.4498 17.0535C77.4498 17.6051 77.2606 18.1725 77.2606 18.9133H79.6721C79.7207 16.8557 79.9687 14.8076 80.4128 12.798C80.9151 11.1751 81.1649 9.48471 81.1536 7.78596C81.0118 4.27124 75.1329 5.56365 71.9807 5.75278ZM76.378 16.4545C74.8965 17.7469 71.0035 18.2986 71.366 14.973C71.7443 12.1833 74.7073 11.6317 78.0487 12.0099C77.8851 13.6109 77.3095 15.1422 76.378 16.4545V16.4545Z" transform="translate(370.595 11.3506)" fill="#991915"/>
<path d="M28.4874 10.3127H25.2483L20.3828 2.37211V9.01436V10.4768H15.1892L14.2189 8.208H8.86134L7.89097 10.6408H4.97986C3.691 10.6881 2.42556 10.2872 1.39907 9.50638C0.887169 8.9632 0.499733 8.31504 0.263709 7.60697C0.0276838 6.89889 -0.0512652 6.1479 0.0323493 5.40623C-0.015487 3.88263 0.467643 2.38976 1.39907 1.18307C1.8986 0.730154 2.49227 0.393528 3.1374 0.197389C3.78253 0.00124992 4.46311 -0.0495312 5.1302 0.0486943H7.56296V2.37211H5.1302C4.77987 2.33903 4.42649 2.37904 4.09242 2.48961C3.75835 2.60018 3.45088 2.77891 3.18947 3.01447C2.9019 3.34716 2.68268 3.73323 2.54432 4.15065C2.40596 4.56806 2.35118 5.00864 2.38311 5.44723C2.32756 5.91242 2.37067 6.3841 2.5096 6.83153C2.64854 7.27895 2.88019 7.69208 3.18947 8.04399C3.42901 8.26649 3.71116 8.43812 4.01888 8.54853C4.32661 8.65893 4.65351 8.70582 4.97986 8.68635H6.11424L9.51737 0.458708H13.2485L17.458 10.5178V0.458708H21.1891L25.5763 7.92098V0.458708H28.1731L28.4874 10.3537V10.3127ZM11.7861 1.55208L9.99572 5.77524H13.4125L11.7861 1.55208Z" transform="translate(559.64 9.68799)" fill="#0079BE"/>
<path d="M26.938 10.7014H24.4916V2.21408L24.3412 2.5421L20.7741 10.4827H18.6557L15.0886 2.21408V10.4827H9.89503L8.76066 8.21397H3.56713L2.48743 10.5374H0L4.55117 0H8.28231L12.4918 10.059V0H16.5919V0.164007L18.5327 4.3735L19.8311 7.46228V7.29827L22.9199 0H27.02V10.7014H26.938ZM4.55117 6.31424H7.79029L6.1639 2.10475L4.55117 6.31424Z" transform="translate(505.564 9.29929)" fill="#0079BE"/>
<path d="M8.43265 2.26875H2.59676V4.20949H8.26864V6.3279H2.59676V8.43265H8.43265V10.7014H0V0H8.43265V2.26875Z" transform="translate(534.443 9.46329)" fill="#0079BE"/>
<path d="M9.28001 6.18608L9.44402 6.35009C9.82336 6.8605 9.99879 7.49399 9.93604 8.12682V10.5596H7.66729V9.4252C7.7415 8.68845 7.5684 7.94796 7.17527 7.32046C7.01126 7.15645 6.84725 7.15645 6.69691 6.99245C6.54657 6.82844 6.04089 6.82844 5.33019 6.82844H2.59676V10.5596H0V0.0358548H5.71288C6.76664 -0.0797296 7.83222 0.0852956 8.80166 0.514206C9.19148 0.740449 9.50658 1.0758 9.70815 1.47893C9.90972 1.88206 9.98893 2.33536 9.93604 2.78296C9.92952 3.36192 9.75748 3.92693 9.44023 4.41128C9.12298 4.89563 8.67377 5.27909 8.14563 5.51639C8.47365 5.6804 8.96567 5.6804 9.28001 6.17242V6.18608ZM7.17527 4.40935C7.34672 4.24582 7.46847 4.03718 7.52651 3.80746C7.58454 3.57775 7.57648 3.33631 7.50328 3.11097V2.94696C7.49346 2.82103 7.43809 2.703 7.34752 2.61495C7.25696 2.5269 7.13742 2.47488 7.01126 2.46861C6.64898 2.33439 6.26235 2.27849 5.87688 2.30461H2.80177V4.73736H5.87688C6.35757 4.80537 6.84614 4.68811 7.2436 4.40935C7.0796 4.57336 7.2436 4.57336 7.2436 4.40935H7.17527Z" transform="translate(544.297 9.42746)" fill="#0079BE"/>
<path d="M2.59677 0H0V10.5374H2.59677V0Z" transform="translate(556.174 9.46329)" fill="#0079BE"/>
<path d="M24.1772 6.49191H21.0885V10.5921H16.0589L13.1478 7.35294L12.9838 7.18893L9.73103 10.5921H0V0H9.73103L12.4645 2.91111L12.9565 3.56713L16.2229 0.123005H24.1772C25.79 0.123005 27.4164 0.437347 28.0724 2.06374C28.0724 2.39175 28.2227 2.71977 28.2227 3.19812C28.5507 5.79488 26.446 6.45091 24.1226 6.45091L24.1772 6.49191ZM25.954 3.23912C25.9441 3.04123 25.8937 2.84749 25.8059 2.66986C25.7181 2.49222 25.5948 2.33448 25.4437 2.20638C25.2925 2.07828 25.1167 1.98255 24.9271 1.92511C24.7375 1.86766 24.5381 1.84972 24.3412 1.8724H21.0885V4.60584H24.3412C25.3116 4.70151 25.954 4.22316 25.954 3.23912V3.23912ZM18.6557 9.56702V0.970368L14.7605 5.19353L18.6557 9.56702ZM2.43276 1.94074V3.89514H7.89963V5.99989H2.43276V8.32331H8.66499L11.5898 5.08419L8.85633 1.8314L2.52843 1.99541L2.43276 1.94074Z" transform="translate(525.354 27.791)" fill="#0079BE"/>
<path d="M9.71736 6.68616C10.0719 7.28886 10.2384 7.98365 10.1957 8.68157V10.7316H7.59895V9.36493C7.67542 8.64717 7.50684 7.92465 7.1206 7.31485C6.79259 6.8365 6.13656 6.8365 5.3302 6.8365H2.59677V10.7316H0V0.0302468H5.68554C6.73589 -0.0747771 7.79551 0.094763 8.76066 0.522266C9.19411 0.753096 9.54905 1.10772 9.78027 1.54095C10.0115 1.97419 10.1085 2.46645 10.059 2.95503C10.0538 3.55556 9.88576 4.14344 9.57289 4.65606C9.26002 5.16869 8.814 5.58688 8.28231 5.86613C8.57009 5.89204 8.84914 5.97849 9.10116 6.11981C9.35319 6.26114 9.57249 6.45414 9.7447 6.68616H9.71736ZM6.98393 4.73176C7.15322 4.59868 7.28594 4.42477 7.36961 4.22635C7.45328 4.02793 7.48517 3.8115 7.46228 3.59738C7.53779 3.38267 7.53062 3.14753 7.44218 2.93781C7.35375 2.72809 7.19038 2.55882 6.98393 2.46301C6.62164 2.32879 6.23502 2.27289 5.84955 2.299H2.73343V4.73176H5.82222C6.00028 4.81298 6.1937 4.85501 6.38941 4.85501C6.58511 4.85501 6.77853 4.81298 6.95659 4.73176H6.98393Z" transform="translate(554.903 27.4327)" fill="#0079BE"/>
<path d="M8.43264 2.26876H2.59676V4.22316H8.26864V6.3279H2.59676V8.43265H8.43264V10.7014H0V0H8.43264V2.26876Z" transform="translate(566.561 27.463)" fill="#0079BE"/>
<path d="M5.19367 11.0461H0.328151V8.77733H5.19367C5.39524 8.81094 5.60179 8.79892 5.79811 8.74216C5.99443 8.68539 6.17551 8.58532 6.32804 8.44931C6.53538 8.23165 6.65258 7.94354 6.65606 7.64295C6.64994 7.3429 6.53311 7.0557 6.32804 6.83658C6.05934 6.60559 5.71142 6.48799 5.35767 6.50858C2.92492 6.34457 0.000142047 6.50858 0.000142047 3.26946C-0.0041244 2.81388 0.0877623 2.36252 0.269806 1.94487C0.451849 1.52722 0.719954 1.15267 1.0566 0.845688C1.39325 0.538705 1.79087 0.306193 2.2235 0.163341C2.65612 0.0204881 3.11401 -0.0294907 3.56727 0.016666H8.59679V2.61343H3.89529C3.50944 2.5748 3.12001 2.6311 2.76091 2.77744C2.4329 2.94144 2.4329 3.26945 2.4329 3.5838C2.4329 3.89815 2.76091 4.23982 3.08892 4.40383C3.39361 4.53865 3.72721 4.59504 4.05929 4.56783H5.35767C5.88327 4.52484 6.41214 4.58864 6.91243 4.75541C7.41272 4.92217 7.8741 5.18845 8.26878 5.53821C8.55969 5.83579 8.78341 6.19227 8.92486 6.58364C9.06632 6.97501 9.12223 7.39215 9.08881 7.80696C9.25282 10.0757 7.79043 11.0461 5.19367 11.0461Z" transform="translate(576.128 27.1183)" fill="#0079BE"/>
<path d="M8.43345 9.67636C8.00254 10.0809 7.49175 10.3908 6.9339 10.5862C6.37606 10.7816 5.78351 10.8581 5.19434 10.8107H0.328817V8.59665H5.19434C5.39591 8.63027 5.60246 8.61825 5.79877 8.56148C5.99509 8.50472 6.17618 8.40464 6.32871 8.26864C6.53748 8.05212 6.65415 7.76306 6.65415 7.46228C6.65415 7.16149 6.53748 6.87244 6.32871 6.65592C6.06 6.42492 5.71209 6.30731 5.35834 6.3279C2.92558 6.1639 0.000808183 6.3279 0.000808183 3.08878C-0.0176105 2.29226 0.279427 1.52072 0.827234 0.942199C1.37504 0.363674 2.12924 0.025023 2.92558 0H8.76146V2.59677H4.19663C3.81079 2.55813 3.42135 2.61443 3.06225 2.76077C2.85718 2.97989 2.74036 3.26708 2.73424 3.56713C2.73424 4.05915 2.89825 4.22316 3.39027 4.3735C3.69496 4.50832 4.02856 4.56471 4.36064 4.5375H5.72736C6.36971 4.5375 6.86173 4.70151 7.34008 4.70151C7.87286 4.89015 8.34785 5.21324 8.71901 5.63948C9.09017 6.06571 9.34489 6.58062 9.45849 7.13427V7.62629C9.41408 8.42849 9.06153 9.18254 8.47445 9.73103L8.43345 9.67636Z" transform="translate(585.858 27.5176)" fill="#0079BE"/>
<path d="M0 3.65973V15.2736C1.82162 14.2186 4.22847 13.6251 7.58323 14.2186C18.1503 16.0484 26.327 20.3676 36.9682 11.3419C36.8693 11.6304 34.5696 20.1697 23.1453 21.8018C13.4437 23.2443 8.19319 19.024 0 20.6561V23.1289C11.9106 25.5275 21.7029 29.657 33.9927 19.1889C33.9927 19.1889 31.2066 30.0362 16.9963 32.1545C10.0807 33.2096 4.99504 31.8661 0 31.0006V35.7978C0 36.7662 0.384709 37.695 1.0695 38.3798C1.75428 39.0646 2.68305 39.4493 3.65149 39.4493H35.7978C36.7662 39.4493 37.695 39.0646 38.3798 38.3798C39.0646 37.695 39.4493 36.7662 39.4493 35.7978V3.65149C39.4493 2.68305 39.0646 1.75428 38.3798 1.0695C37.695 0.384709 36.7662 0 35.7978 0H3.55258C2.60938 0.0534067 1.72068 0.459272 1.06266 1.13713C0.404648 1.815 0.0253628 2.71536 0 3.65973V3.65973ZM28.6184 13.6416C20.6478 14.7955 16.9963 10.4764 9.1246 13.9301C9.1246 13.9301 10.4682 7.1134 17.7629 8.36628C25.0576 9.61916 30.8192 12.6854 38.2129 6.34683C38.2129 6.34683 36.6798 12.3969 28.6184 13.6416Z" transform="translate(625.467 0.607819)" fill="#00622A"/>
<path d="M6.64168 0H0V40.321H6.64168V0Z" transform="translate(697.66 0.480133)" fill="#4F4F4F"/>
<path d="M6.64168 0H0V40.321H6.64168V0Z" transform="translate(723.678 0.659607)" fill="#4F4F4F"/>
<path d="M3.38486 0H0V40.321H3.38486V0Z" transform="translate(705.777 0.480133)" fill="#4F4F4F"/>
<path d="M1.51641 0H0V40.321H1.51641V0Z" transform="translate(710.83 0.480133)" fill="#4F4F4F"/>
<path d="M1.51641 0H0V40.321H1.51641V0Z" transform="translate(731.988 0.569885)" fill="#4F4F4F"/>
<path d="M1.51641 0H0V40.321H1.51641V0Z" transform="translate(736.032 0.659607)" fill="#4F4F4F"/>
<path d="M1.51641 0H0V40.321H1.51641V0Z" transform="translate(713.232 0.480133)" fill="#4F4F4F"/>
<path d="M3.24588 0H0V40.321H3.24588V0Z" transform="translate(717.275 0.480133)" fill="#4F4F4F"/>
<path d="M3.24588 0H0V40.321H3.24588V0Z" transform="translate(740.114 0.659607)" fill="#4F4F4F"/>
<path d="M0 6.99463V0H2.51249C3.41245 0 4.09622 0.164938 4.5638 0.494813C5.0346 0.824688 5.27 1.30348 5.27 1.93122C5.27 2.29311 5.18673 2.60217 5.02019 2.85839C4.85365 3.1146 4.60864 3.30355 4.28517 3.42525C4.65028 3.52134 4.93052 3.70069 5.12588 3.9633C5.32124 4.22593 5.41893 4.54619 5.41893 4.92411C5.41893 5.60948 5.20113 6.12511 4.76558 6.471C4.33322 6.81369 3.69108 6.98823 2.83917 6.99463H0ZM1.6862 4.02096V5.69755H2.79114C3.09538 5.69755 3.32918 5.6287 3.49251 5.49098C3.65586 5.35007 3.73751 5.1531 3.73751 4.90008C3.73751 4.3172 3.44768 4.02415 2.86799 4.02096H1.6862ZM1.6862 2.91603H2.56534C2.93364 2.91283 3.19627 2.84558 3.3532 2.71426C3.51012 2.58295 3.58859 2.38919 3.58859 2.13298C3.58859 1.83833 3.50372 1.62696 3.33397 1.49885C3.16424 1.36754 2.8904 1.30188 2.51249 1.30188H1.6862V2.91603Z" transform="translate(707.47 45.9053)" fill="#4F4F4F"/>
<path d="M0 2.64701C0 2.12818 0.100881 1.66699 0.302644 1.26346C0.504421 0.856721 0.794258 0.544451 1.17217 0.326673C1.55008 0.108896 1.99365 0 2.50288 0C3.28112 0 3.89444 0.241807 4.34282 0.725407C4.79119 1.20581 5.01537 1.86076 5.01537 2.69024V2.7479C5.01537 3.55817 4.78959 4.2019 4.33801 4.6791C3.88963 5.1531 3.28112 5.3901 2.51249 5.3901C1.77267 5.3901 1.17857 5.16912 0.730198 4.72715C0.281823 4.28198 0.0400302 3.67987 0.00479163 2.92084L0 2.64701ZM1.61895 2.7479C1.61895 3.2283 1.6942 3.58059 1.84473 3.80478C1.99525 4.02896 2.21785 4.14105 2.51249 4.14105C3.08897 4.14105 3.38362 3.69748 3.39642 2.81034V2.64701C3.39642 1.71504 3.09858 1.24904 2.50288 1.24904C1.96162 1.24904 1.66859 1.65098 1.62374 2.45485L1.61895 2.7479Z" transform="translate(713.542 47.6059)" fill="#4F4F4F"/>
<path d="M1.62376 7.37895H0V0H1.62376V7.37895Z" transform="translate(719.355 45.521)" fill="#4F4F4F"/>
<path d="M2.67591 5.3901C1.87844 5.3901 1.23299 5.1531 0.739853 4.6791C0.24657 4.2019 0 3.58218 0 2.81996V2.68545C0 2.1538 0.0976869 1.68461 0.293061 1.27787C0.491572 0.871124 0.779926 0.557271 1.15784 0.336285C1.53575 0.11209 1.98411 0 2.50292 0C3.23308 0 3.80965 0.227389 4.23234 0.682168C4.65503 1.13375 4.86652 1.76467 4.86652 2.57495V3.20427H1.64784C1.70546 3.49572 1.83195 3.72471 2.02732 3.89125C2.2227 4.05778 2.47568 4.14105 2.78629 4.14105C3.29882 4.14105 3.69912 3.96171 3.98734 3.60301L4.72719 4.47734C4.5254 4.75597 4.23875 4.97855 3.86726 5.14509C3.4989 5.30843 3.10174 5.3901 2.67591 5.3901ZM2.49323 1.24904C2.01934 1.24904 1.7374 1.5629 1.64784 2.19062H3.28114V2.06573C3.28755 1.80631 3.22195 1.60614 3.0842 1.46522C2.94644 1.3211 2.74949 1.24904 2.49323 1.24904Z" transform="translate(721.819 47.6059)" fill="#4F4F4F"/>
<path d="M2.28188 0V1.29227H3.13696V2.41641H2.28188V4.7944C2.28188 4.98977 2.3171 5.12588 2.38755 5.20274C2.458 5.27961 2.59733 5.31804 2.80554 5.31804C2.96569 5.31804 3.10017 5.30843 3.20898 5.28922V6.44697C2.91763 6.53985 2.6133 6.5863 2.29628 6.5863C1.73897 6.5863 1.32754 6.45499 1.06172 6.19236C0.795899 5.92975 0.662988 5.53101 0.662988 4.99617V2.41641H0V1.29227H0.662988V0H2.28188Z" transform="translate(726.945 46.4097)" fill="#4F4F4F"/>
<path d="M0 2.64701C0 2.12818 0.100826 1.66699 0.302617 1.26346C0.504408 0.856721 0.79433 0.544451 1.17224 0.326673C1.55016 0.108896 1.99367 0 2.50292 0C3.28114 0 3.8945 0.241807 4.34286 0.725407C4.79122 1.20581 5.0154 1.86076 5.0154 2.69024V2.7479C5.0154 3.55817 4.78965 4.2019 4.33801 4.6791C3.88965 5.1531 3.28114 5.3901 2.51248 5.3901C1.77262 5.3901 1.17866 5.16912 0.730157 4.72715C0.281796 4.28198 0.0400725 3.67987 0.0048482 2.92084L0 2.64701ZM1.61889 2.7479C1.61889 3.2283 1.69419 3.58059 1.84479 3.80478C1.99524 4.02896 2.21785 4.14105 2.51248 4.14105C3.08904 4.14105 3.38367 3.69748 3.39651 2.81034V2.64701C3.39651 1.71504 3.0986 1.24904 2.50292 1.24904C1.96158 1.24904 1.66866 1.65098 1.62374 2.45485L1.61889 2.7479Z" transform="translate(730.375 47.6059)" fill="#4F4F4F"/>
<path fill-rule="evenodd" clip-rule="evenodd" d="M0 6.31262C0 2.82927 2.81214 0 6.28788 0H54.9748C58.4506 0 61.2628 2.82927 61.2628 6.31262V35.6548C61.2628 39.1381 58.4506 41.9674 54.9748 41.9674H6.28788C2.82496 41.9674 0 39.1253 0 35.6548V6.31262ZM6.28788 1.44715C3.61742 1.44715 1.44715 3.62245 1.44715 6.31262V35.6548C1.44715 38.3321 3.63025 40.5202 6.28788 40.5202H54.9748C57.6454 40.5202 59.8156 38.3449 59.8156 35.6548V6.31262C59.8156 3.62245 57.6454 1.44715 54.9748 1.44715H6.28788Z" transform="translate(0.98175 74.0088)" fill="#2687E9"/>
<path fill-rule="evenodd" clip-rule="evenodd" d="M8.34634 1.44715H0V0H8.34634V1.44715Z" transform="translate(10.0517 104.748)" fill="#2687E9"/>
<path fill-rule="evenodd" clip-rule="evenodd" d="M6.95532 1.44715H0V0H6.95532V1.44715Z" transform="translate(22.5712 104.748)" fill="#2687E9"/>
<path fill-rule="evenodd" clip-rule="evenodd" d="M8.34634 1.44715H0V0H8.34634V1.44715Z" transform="translate(33.6996 104.748)" fill="#2687E9"/>
<path fill-rule="evenodd" clip-rule="evenodd" d="M8.34634 1.44715H0V0H8.34634V1.44715Z" transform="translate(46.2192 104.748)" fill="#2687E9"/>
<path d="M11.1286 4.89044C11.1286 7.59142 8.94881 9.7809 6.25981 9.7809H4.8688C2.18003 9.7809 0 7.59142 0 4.89044C0 2.18971 2.17977 0 4.8688 0H6.25981C8.94881 0 11.1286 2.18946 11.1286 4.89044Z" transform="translate(43.437 83.1159)" fill="#2687E9"/>
<path fill-rule="evenodd" clip-rule="evenodd" d="M5.59238 1.44715C3.30602 1.44715 1.44715 3.30986 1.44715 5.61402C1.44715 7.91838 3.30622 9.7809 5.59238 9.7809H6.98339C9.26975 9.7809 11.1286 7.91841 11.1286 5.61402C11.1286 3.30963 9.26975 1.44715 6.98339 1.44715H5.59238ZM0 5.61402C0 2.51673 2.50068 0 5.59238 0H6.98339C10.0751 0 12.5758 2.51645 12.5758 5.61402C12.5758 8.71156 10.0751 11.228 6.98339 11.228H5.59238C2.50099 11.228 0 8.71164 0 5.61402Z" transform="translate(42.7135 82.3921)" fill="white"/>
<path d="M18.1807 42.6053V0H16.4492V42.6053H18.1807ZM38.0929 42.6053V0H36.3614V42.6053H38.0929ZM42.4217 42.6053V0H40.6902V42.6053H42.4217ZM15.5835 42.6053V0H13.852V42.6053H15.5835ZM34.6299 42.6053V0H27.704V42.6053H34.6299ZM24.241 42.6053V0H20.778V42.6053H24.241ZM12.1205 42.6053V0H8.65749V42.6053H12.1205ZM48.4819 42.6053V0H45.0189V42.6053H48.4819ZM6.92598 42.6053V0H0V42.6053H6.92598Z" transform="translate(194.245 116.614) scale(1 -1)" fill="#2687E9"/>
<path fill-rule="evenodd" clip-rule="evenodd" d="M0 6.31262C0 2.82927 2.81214 0 6.28788 0H54.9748C58.4506 0 61.2628 2.82927 61.2628 6.31262V35.6548C61.2628 39.1381 58.4506 41.9674 54.9748 41.9674H6.28788C2.82496 41.9674 0 39.1253 0 35.6548V6.31262ZM6.28788 1.44715C3.61742 1.44715 1.44715 3.62245 1.44715 6.31262V35.6548C1.44715 38.3321 3.63025 40.5202 6.28788 40.5202H54.9748C57.6454 40.5202 59.8156 38.3449 59.8156 35.6548V6.31262C59.8156 3.62245 57.6454 1.44715 54.9748 1.44715H6.28788Z" transform="translate(92.0604 74.1164)" fill="#2687E9"/>
<path fill-rule="evenodd" clip-rule="evenodd" d="M8.34634 1.44715H0V0H8.34634V1.44715Z" transform="translate(101.13 104.856)" fill="#2687E9"/>
<path fill-rule="evenodd" clip-rule="evenodd" d="M6.95532 1.44715H0V0H6.95532V1.44715Z" transform="translate(113.65 104.856)" fill="#2687E9"/>
<path fill-rule="evenodd" clip-rule="evenodd" d="M8.34634 1.44715H0V0H8.34634V1.44715Z" transform="translate(124.778 104.856)" fill="#2687E9"/>
<path fill-rule="evenodd" clip-rule="evenodd" d="M8.34634 1.44715H0V0H8.34634V1.44715Z" transform="translate(137.298 104.856)" fill="#2687E9"/>
<path d="M11.1286 4.89044C11.1286 7.59142 8.94881 9.7809 6.25981 9.7809H4.8688C2.18003 9.7809 0 7.59142 0 4.89044C0 2.18971 2.17977 0 4.8688 0H6.25981C8.94881 0 11.1286 2.18946 11.1286 4.89044Z" transform="translate(134.516 83.2236)" fill="white"/>
<path fill-rule="evenodd" clip-rule="evenodd" d="M5.59238 1.44715C3.30602 1.44715 1.44715 3.30986 1.44715 5.61402C1.44715 7.91838 3.30622 9.7809 5.59238 9.7809H6.98339C9.26975 9.7809 11.1286 7.91841 11.1286 5.61402C11.1286 3.30963 9.26975 1.44715 6.98339 1.44715H5.59238ZM0 5.61402C0 2.51673 2.50068 0 5.59238 0H6.98339C10.0751 0 12.5758 2.51645 12.5758 5.61402C12.5758 8.71156 10.0751 11.228 6.98339 11.228H5.59238C2.50099 11.228 0 8.71164 0 5.61402Z" transform="translate(133.792 82.4998)" fill="#2687E9"/>
<path fill-rule="evenodd" clip-rule="evenodd" d="M27 11.8125H6.41251L15.8625 2.3625L13.5 0L0 13.5L13.5 27L15.8625 24.6375L6.41251 15.1875H27V11.8125Z" transform="translate(270.031 80.2278)" fill="#2687E9"/>
<path fill-rule="evenodd" clip-rule="evenodd" d="M27 11.8125H6.41251L15.8625 2.3625L13.5 0L0 13.5L13.5 27L15.8625 24.6375L6.41251 15.1875H27V11.8125Z" transform="translate(371.345 107.228) rotate(-180)" fill="#2687E9"/>
<g opacity="0.9">
<path d="M10.9756 21.9513C17.0373 21.9513 21.9513 17.0373 21.9513 10.9756C21.9513 4.91396 17.0373 0 10.9756 0C4.91396 0 0 4.91396 0 10.9756C0 17.0373 4.91396 21.9513 10.9756 21.9513Z" transform="translate(443.036 82.472)" fill="#E3324C"/>
<path d="M1.23589 8.95833C1.6095 8.95833 1.91009 9.0683 2.13788 9.28837C2.36566 9.50843 2.4795 9.78994 2.4795 10.1328C2.4795 10.4705 2.36566 10.7494 2.13788 10.9695C1.91009 11.1895 1.6095 11.2996 1.23589 11.2996C0.867462 11.2996 0.569299 11.1896 0.341623 10.9696C0.113948 10.7495 -2.08713e-07 10.4706 -2.08713e-07 10.1329C-2.08713e-07 9.79512 0.113838 9.51494 0.341623 9.29234C0.569409 9.06974 0.867462 8.95833 1.23589 8.95833ZM2.15707 7.74549H0.314709L0.0537197 -3.0297e-08H2.41806L2.15707 7.74549Z" transform="translate(452.681 88.3805)" fill="white"/>
</g>
<path d="M11.085 22.17C17.2071 22.17 22.17 17.2071 22.17 11.085C22.17 4.96292 17.2071 0 11.085 0C4.96292 0 0 4.96292 0 11.085C0 17.2071 4.96292 22.17 11.085 22.17Z" transform="translate(494.168 82.2205)" fill="#A6E8CA"/>
<path d="M5.87931 5.31531C5.6115 5.61593 5.14593 5.64342 4.84441 5.37561L0.244585 1.27948C-0.0560397 1.01167 -0.0835303 0.546097 0.184283 0.244585C0.452097 -0.0560396 0.917666 -0.0835302 1.21918 0.184283L5.81901 4.28041C6.12052 4.54822 6.14801 5.01379 5.87931 5.31531Z" transform="translate(499.794 92.4145)" fill="#26C281"/>
<path d="M0.314078 8.29577C-0.0166982 8.06609 -0.100058 7.60673 0.13051 7.27595L4.968 0.31369C5.19768 -0.017086 5.65705 -0.0995586 5.98782 0.130122C6.3186 0.359804 6.40107 0.819166 6.17139 1.14994L1.3339 8.11221C1.10422 8.44298 0.644854 8.52545 0.314078 8.29577Z" transform="translate(504.772 89.1423)" fill="#26C281"/>
</svg>
