<svg width="744" height="179" xmlns="http://www.w3.org/2000/svg" xmlns:xlink="http://www.w3.org/1999/xlink">
 <defs>
  <pattern height="1" width="1" patternContentUnits="objectBoundingBox" id="pattern0">
   <use id="svg_1" transform="scale(0.0009765619761310518,0.0021977999713271856) " xlink:href="#image0"/>
  </pattern>
 </defs>
 <g>
  <title>background</title>
  <rect fill="none" id="canvas_background" height="402" width="582" y="-1" x="-1"/>
 </g>
 <g>
  <title>Layer 1</title>
  <rect id="svg_2" x="0.540237" y="0.152649" fill-opacity="0" fill="black" height="178.311" width="742.837"/>
  <rect id="svg_3" x="505.937012" y="11.1245" fill-opacity="0" fill="black" height="32.432" width="90.8822"/>
  <path id="svg_4" fill="#0079BE" d="m516.023,19.0675l-1.695,-4.1296l-1.685,4.1296l3.38,0zm37.334,-1.6444c-0.34,0.2065 -0.743,0.2134 -1.225,0.2134l-3.008,0l0,-2.3009l3.049,0c0.432,0 0.882,0.0194 1.174,0.1869c0.321,0.1509 0.52,0.4721 0.52,0.9158c0,0.4527 -0.189,0.817 -0.51,0.9848zm21.458,1.6444l-1.713,-4.1296l-1.704,4.1296l3.417,0zm-39.999,4.4698l-2.538,0l-0.01,-8.1129l-3.59,8.1129l-2.174,0l-3.6,-8.1201l0,8.1201l-5.036,0l-0.951,-2.3105l-5.156,0l-0.961,2.3105l-2.689,0l4.434,-10.3588l3.678,0l4.212,9.8077l0,-9.8077l4.041,0l3.24,7.0272l2.977,-7.0272l4.122,0l0.001,10.3588zm10.116,0l-8.271,0l0,-10.3588l8.272,0l0,2.1571l-5.795,0l0,1.8672l5.655,0l0,2.1234l-5.655,0l0,2.0687l5.795,0l-0.001,2.1424zm11.663,-7.569c0,1.6516 -1.102,2.5049 -1.745,2.7611c0.542,0.2062 1.005,0.5705 1.225,0.8724c0.349,0.5152 0.41,0.9754 0.41,1.9006l0,2.0349l-2.497,0l-0.01,-1.3063c0,-0.6234 0.06,-1.5198 -0.391,-2.0181c-0.361,-0.3643 -0.913,-0.4434 -1.804,-0.4434l-2.658,0l0,3.7678l-2.476,0l0,-10.3588l5.695,0c1.265,0 2.198,0.0338 2.998,0.4962c0.783,0.4627 1.253,1.1382 1.253,2.2936zm3.962,7.569l-2.526,0l0,-10.3588l2.526,0l0,10.3588zm29.31,0l-3.508,0l-4.694,-7.7749l0,7.7749l-5.042,0l-0.964,-2.3105l-5.143,0l-0.935,2.3105l-2.897,0c-1.204,0 -2.728,-0.2662 -3.59,-1.1457c-0.871,-0.8796 -1.323,-2.0709 -1.323,-3.9546c0,-1.5363 0.27,-2.9408 1.334,-4.0506c0.801,-0.8267 2.054,-1.2079 3.76,-1.2079l2.398,0l0,2.2196l-2.348,0c-0.903,0 -1.413,0.1344 -1.905,0.6137c-0.422,0.4361 -0.712,1.2607 -0.712,2.3464c0,1.1098 0.221,1.91 0.682,2.4327c0.381,0.4099 1.073,0.5343 1.725,0.5343l1.112,0l3.49,-8.1464l3.71,0l4.192,9.798l0,-9.798l3.77,0l4.352,7.2144l0,-7.2144l2.536,0l0,10.3585zm-81.785,2.0346c2.89,0 4.231,0 4.231,0l0.954,-2.3008l2.135,0l0.952,2.3008l8.324,0l0,-1.759l0.743,1.7665l4.321,0l0.743,-1.7928l0,1.7853l20.686,0l-0.009,-3.7768l0.4,0c0.28,0.0097 0.362,0.0356 0.362,0.4984l0,3.2784l10.699,0l0,-0.8792c0.863,0.4624 2.205,0.8792 3.972,0.8792l4.5,0l0.964,-2.3008l2.135,0l0.942,2.3008l8.674,0l0,-2.1858l1.314,2.1858l6.95,0l0,-14.4474l-6.879,0l0,1.7063l-0.963,-1.7063l-7.058,0l0,1.7063l-0.885,-1.7063l-9.534,0c-1.596,0 -2.999,0.2228 -4.132,0.8436l0,-0.8436l-6.58,0l0,0.8436c-0.721,-0.6399 -1.704,-0.8436 -2.796,-0.8436l-24.037,0l-1.613,3.7315l-1.656,-3.7315l-7.572,0l0,1.7063l-0.831,-1.7063l-6.457,0c0,0 -0.925,2.5393 -2.731,6.9376c-1.028,3.2331 -1.726,4.5243 -2.214,6.6337c-0.297,1.2804 -0.623,0.6682 1.946,0.8761z"/>
  <path id="svg_5" fill="#0079BE" d="m596.82,33.358l-4.513,0c-0.45,0 -0.75,0.0168 -1.002,0.1871c-0.261,0.1678 -0.362,0.4168 -0.362,0.7455c0,0.3912 0.221,0.6568 0.542,0.7721c0.261,0.0909 0.541,0.1171 0.954,0.1171l1.342,0.036c1.354,0.0337 2.258,0.2662 2.809,0.8342c0.1,0.0787 0.161,0.1678 0.23,0.2562l0,-2.9482zm0,6.8312c-0.602,0.8796 -1.774,1.3251 -3.36,1.3251l-4.782,0l0,-2.2215l4.762,0c0.472,0 0.803,-0.0621 1.002,-0.2568c0.172,-0.16 0.293,-0.393 0.293,-0.6755c0,-0.3021 -0.121,-0.5411 -0.303,-0.6852c-0.179,-0.1581 -0.441,-0.2299 -0.872,-0.2299c-2.325,-0.0788 -5.225,0.0718 -5.225,-3.207c0,-1.5031 0.954,-3.0847 3.552,-3.0847l4.932,0l0,-2.0615l-4.582,0c-1.383,0 -2.388,0.3315 -3.099,0.8461l0,-0.8461l-6.778,0c-1.084,0 -2.356,0.2684 -2.958,0.8461l0,-0.8461l-12.103,0l0,0.8461c-0.964,-0.6949 -2.589,-0.8461 -3.339,-0.8461l-7.984,0l0,0.8461c-0.762,-0.738 -2.456,-0.8461 -3.49,-0.8461l-8.935,0l-2.044,2.2127l-1.915,-2.2127l-13.347,0l0,14.4571l13.096,0l2.107,-2.2474l1.985,2.2474l8.072,0.0072l0,-3.401l0.793,0c1.072,0.0166 2.335,-0.0269 3.449,-0.5083l0,3.9018l6.658,0l0,-3.7681l0.322,0c0.41,0 0.45,0.0172 0.45,0.4265l0,3.3409l20.226,0c1.284,0 2.626,-0.3287 3.37,-0.9251l0,0.9251l6.415,0c1.335,0 2.639,-0.1871 3.631,-0.6664l0,-2.6927l0.001,0zm-9.877,-4.1392c0.482,0.4986 0.74,1.1285 0.74,2.1949c0,2.229 -1.392,3.2694 -3.889,3.2694l-4.823,0l0,-2.2215l4.803,0c0.47,0 0.803,-0.0621 1.012,-0.2568c0.17,-0.16 0.292,-0.393 0.292,-0.6755c0,-0.3021 -0.132,-0.5415 -0.302,-0.6852c-0.19,-0.1581 -0.451,-0.2299 -0.882,-0.2299c-2.315,-0.0788 -5.215,0.0718 -5.215,-3.207c0,-1.5031 0.944,-3.0847 3.54,-3.0847l4.964,0l0,2.2055l-4.542,0c-0.45,0 -0.743,0.0169 -0.992,0.1872c-0.271,0.1678 -0.372,0.4168 -0.372,0.7455c0,0.3911 0.23,0.6564 0.542,0.772c0.261,0.0909 0.541,0.1172 0.963,0.1172l1.333,0.0359c1.344,0.0322 2.267,0.2646 2.828,0.833zm-22.342,-0.6402c-0.332,0.1965 -0.741,0.2137 -1.223,0.2137l-3.008,0l0,-2.3271l3.049,0c0.441,0 0.882,0.0094 1.182,0.1872c0.321,0.1678 0.512,0.4886 0.512,0.9317c0,0.4433 -0.191,0.8005 -0.512,0.9945zm1.495,1.2894c0.551,0.2034 1.002,0.5681 1.213,0.8699c0.35,0.5058 0.4,0.9779 0.41,1.8915l0,2.0537l-2.485,0l0,-1.2966c0,-0.623 0.059,-1.5463 -0.401,-2.0278c-0.361,-0.3712 -0.913,-0.4602 -1.816,-0.4602l-2.646,0l0,3.7846l-2.488,0l0,-10.3613l5.716,0c1.254,0 2.167,0.0553 2.979,0.489c0.782,0.4721 1.273,1.1186 1.273,2.3006c0,1.6537 -1.103,2.4979 -1.755,2.7566zm3.128,-5.5462l8.264,0l0,2.1428l-5.799,0l0,1.8837l5.657,0l0,2.114l-5.657,0l0,2.0615l5.799,0.0094l0,2.1499l-8.264,0l0,-10.3613zm-16.706,4.7814l-3.199,0l0,-2.6383l3.228,0c0.894,0 1.515,0.3643 1.515,1.2701c0,0.8967 -0.592,1.3682 -1.544,1.3682zm-5.665,4.6373l-3.802,-4.2205l3.802,-4.0862l0,8.3067zm-9.817,-1.2167l-6.088,0l0,-2.0615l5.435,0l0,-2.114l-5.435,0l0,-1.8837l6.207,0l2.709,3.0195l-2.828,3.0397zm19.684,-4.7885c0,2.8786 -2.148,3.4725 -4.312,3.4725l-3.09,0l0,3.4753l-4.812,0l-3.049,-3.43l-3.168,3.43l-9.808,0l0,-10.3613l9.959,0l3.046,3.3963l3.149,-3.3963l7.912,0c1.965,0 4.173,0.544 4.173,3.4135z"/>
  <rect id="svg_6" fill="url(#pattern0)" height="49.4914" width="111.383" y="0.152649" x="365.434"/>
  <g id="svg_8" opacity="0.95">
   <rect id="svg_9" x="1.99895" y="149.240005" fill-opacity="0" fill="black" height="29.2236" width="243.534"/>
   <rect id="svg_10" x="1.99895" y="149.462997" fill-opacity="0" fill="black" height="28.9089" width="41.0522"/>
   <path id="svg_11" fill="white" d="m38.2331,154.866l-10.1349,6.241l0,5.918l14.9529,-9.21l-4.818,-2.949zm-16.1601,9.951l-13.62412,8.39c-0.28196,0.173 -0.60975,0.18 -0.90052,0.02c-0.29078,-0.16 -0.45819,-0.438 -0.45819,-0.766l0,-8.155l-5.09122,-3.118l0,11.274c0,2.174 1.149,4.102 3.07517,5.157c0.89876,0.492 1.90326,0.753 2.90952,0.753c1.10495,0 2.19576,-0.311 3.15976,-0.9l16.0226,-9.869l-5.093,-2.786z" clip-rule="evenodd" fill-rule="evenodd" opacity="0.95"/>
   <path id="svg_12" fill="white" d="m24.7094,150.12c-1.8785,-1.026 -4.2877,-0.841 -6.4482,0.492c-3.6849,2.276 -14.74317,9.099 -14.74317,9.099l-1.51908,0.922l5.09298,3.117l14.11577,-8.737c0.282,-0.172 0.571,-0.179 0.86,-0.021c0.2908,0.16 0.4564,0.44 0.4564,0.767l0,8.765l5.093,2.785l0,-11.55c-0.0018,-2.575 -1.0609,-4.63 -2.9077,-5.639z" clip-rule="evenodd" fill-rule="evenodd" opacity="0.95"/>
   <rect id="svg_13" x="204.481003" y="149.240005" fill-opacity="0" fill="black" height="28.9089" width="41.0522"/>
   <path id="svg_14" fill="#2687E9" d="m240.715,154.643l-10.135,6.24l0,5.919l14.953,-9.21l-4.818,-2.949zm-16.16,9.951l-13.624,8.389c-0.282,0.174 -0.61,0.181 -0.9,0.021c-0.291,-0.16 -0.459,-0.438 -0.459,-0.767l0,-8.154l-5.091,-3.118l0,11.274c0,2.173 1.149,4.102 3.075,5.157c0.899,0.492 1.904,0.753 2.91,0.753c1.105,0 2.196,-0.311 3.16,-0.901l16.022,-9.869l-5.093,-2.785z" clip-rule="evenodd" fill-rule="evenodd" opacity="0.95"/>
   <path id="svg_15" fill="#2687E9" d="m227.192,149.897c-1.879,-1.026 -4.288,-0.842 -6.449,0.492c-3.684,2.276 -14.743,9.099 -14.743,9.099l-1.519,0.921l5.093,3.118l14.116,-8.737c0.282,-0.172 0.571,-0.179 0.86,-0.021c0.291,0.16 0.456,0.44 0.456,0.767l0,8.765l5.093,2.785l0,-11.55c-0.001,-2.575 -1.061,-4.631 -2.907,-5.639z" clip-rule="evenodd" fill-rule="evenodd" opacity="0.95"/>
   <path id="svg_16" fill="white" d="m55.6339,165.47c-0.4159,3.698 -1.4416,4.959 -4.0586,4.995c-0.9921,-0.014 -1.69,-0.26 -2.1341,-0.754c-0.645,-0.717 -0.8335,-1.988 -0.6133,-4.116c0.4353,-3.608 1.5226,-4.948 4.0127,-4.948c1.0451,0 1.7729,0.243 2.2258,0.742c0.6327,0.696 0.8071,1.954 0.5675,4.081zm-2.1923,-7.463c-2.076,0 -3.1386,0.663 -3.9211,1.412l0.1181,-1.043l-2.9994,0l-2.224,19.773l2.9994,0l0.7313,-6.507c0.5516,0.682 1.3376,1.301 2.9748,1.435l0,0.03l0.3207,0c0.0493,0 0.0952,-0.002 0.1427,-0.002l0.0511,-0.002l0.0617,0.002c0.0388,0.001 0.0776,0.002 0.1199,0.002c4.025,0 6.3442,-2.466 6.8905,-7.329l0.0123,-0.132c0.0106,-0.079 0.0194,-0.159 0.0282,-0.237c0.3084,-2.738 -0.0864,-4.668 -1.2036,-5.901c-0.9041,-0.996 -2.2839,-1.501 -4.1026,-1.501z" clip-rule="evenodd" fill-rule="evenodd" opacity="0.95"/>
   <path id="svg_17" fill="white" d="m69.6915,167.238c-0.252,2.24 -1.6389,3.283 -4.3634,3.283c-1.0062,0 -1.6142,-0.151 -1.9085,-0.476c-0.2291,-0.253 -0.3084,-0.656 -0.2432,-1.231c0.1515,-1.346 0.8494,-1.842 2.9853,-2.123c0.0194,-0.002 1.8328,-0.213 3.6179,-0.228l-0.0881,0.775zm-1.7534,-9.231c-4.1555,0 -6.027,1.324 -6.6755,4.719l-0.0723,0.374l2.9783,0l0.0704,-0.222c0.46,-1.473 0.712,-2.285 3.373,-2.285c1.2301,0 1.9949,0.184 2.3386,0.561c0.2643,0.293 0.3401,0.753 0.252,1.543l-0.1569,1.385c-1.0961,-0.074 -3.6743,-0.161 -6.0111,0.419c-3.1157,0.774 -3.8382,3.172 -3.9915,4.532c-0.1375,1.222 0.1057,2.187 0.7225,2.867c0.7349,0.81 1.9544,1.205 3.7255,1.205c2.2363,0 3.6197,-0.644 4.6999,-1.436l-0.1233,1.093l2.9994,0l1.1895,-10.577c0.1375,-1.22 -0.1057,-2.182 -0.7208,-2.86c-0.8141,-0.899 -2.2751,-1.318 -4.5977,-1.318z" clip-rule="evenodd" fill-rule="evenodd" opacity="0.95"/>
   <path id="svg_18" fill="white" d="m84.2638,161.375c0.6238,0.687 0.793,1.949 0.5516,4.095l-0.46,4.084c-1.4856,0.692 -3.0029,0.748 -3.4452,0.748c-1.2195,0 -1.9984,-0.233 -2.4531,-0.734c-0.5939,-0.654 -0.7419,-1.866 -0.4952,-4.053c0.3542,-3.156 1.1032,-4.867 4.0321,-4.867c1.0979,-0.001 1.8187,0.23 2.2698,0.727zm1.2265,-1.912c-0.7295,-0.838 -1.6953,-1.456 -3.7237,-1.456c-4.025,0 -6.3424,2.457 -6.8869,7.303c-0.3172,2.813 0.1233,4.903 1.3076,6.207c0.9481,1.045 2.365,1.574 4.2118,1.574c0.2185,0 2.0037,-0.019 3.6197,-0.63c-0.3048,2.212 -0.83,3.363 -4.1484,3.363c-1.6724,0 -2.3896,-0.255 -2.4901,-1.841l-0.0193,-0.296l-2.9712,0l-0.0053,0.311c-0.0229,1.43 0.3189,2.478 1.045,3.207c0.8565,0.859 2.2222,1.259 4.2947,1.259c6.1204,0 7.0191,-3.48 7.4544,-7.357l1.431,-12.733l-2.9994,0l-0.1199,1.089z" clip-rule="evenodd" fill-rule="evenodd" opacity="0.95"/>
   <path id="svg_19" fill="white" d="m99.8212,165.47l-0.46,4.084c-1.4838,0.692 -3.0029,0.748 -3.4452,0.748c-1.2177,0 -1.9984,-0.233 -2.4513,-0.734c-0.5939,-0.654 -0.742,-1.866 -0.4952,-4.053c0.3542,-3.156 1.1031,-4.867 4.0338,-4.867c1.0962,0 1.8151,0.232 2.2663,0.729c0.6221,0.685 0.7914,1.947 0.5516,4.093zm0.7968,-7.092l-0.122,1.085c-0.7294,-0.838 -1.6952,-1.456 -3.7235,-1.456c-4.0251,0 -6.3425,2.457 -6.887,7.303c-0.3155,2.813 0.1233,4.903 1.3076,6.207c0.9481,1.045 2.365,1.574 4.2118,1.574c0.2186,0 2.0037,-0.019 3.6197,-0.63c-0.3048,2.212 -0.83,3.363 -4.1483,3.363c-1.6724,0 -2.3897,-0.255 -2.4902,-1.841l-0.0193,-0.296l-2.9712,0l-0.0053,0.311c-0.0229,1.43 0.3189,2.478 1.045,3.207c0.8565,0.859 2.2222,1.259 4.2947,1.259c6.122,0 7.019,-3.48 7.454,-7.357l1.431,-12.733l-2.997,0l0,0.004z" clip-rule="evenodd" fill-rule="evenodd" opacity="0.95"/>
   <path id="svg_20" fill="white" d="m112.204,158.007c-3.048,0 -6.645,0.866 -7.405,7.621c-0.326,2.902 0.03,4.815 1.123,6.018c0.907,1.001 2.316,1.487 4.305,1.487c2.538,0 5.594,-0.619 6.704,-5.448l0.088,-0.386l-3.005,0l-0.061,0.238c-0.651,2.53 -1.548,2.956 -3.313,2.956c-1.144,0 -1.874,-0.217 -2.298,-0.685c-0.573,-0.631 -0.702,-1.815 -0.446,-4.086c0.447,-3.987 1.325,-5.077 4.083,-5.077c1.766,0 2.404,0.376 2.469,2.492l0.009,0.306l2.983,0l0.002,-0.315c0.01,-1.808 -0.377,-3.039 -1.221,-3.874c-0.845,-0.838 -2.159,-1.247 -4.017,-1.247z" clip-rule="evenodd" fill-rule="evenodd" opacity="0.95"/>
   <path id="svg_21" fill="white" d="m122.415,164.001c0.626,-2.824 1.882,-3.354 4.076,-3.354c1.109,0 1.868,0.226 2.323,0.692c0.486,0.497 0.684,1.279 0.662,2.662l-7.061,0zm4.328,-5.994c-4.605,0 -7.126,2.535 -7.713,7.753c-0.3,2.669 0.075,4.542 1.149,5.726c0.99,1.092 2.569,1.622 4.83,1.622c3.933,0 6.274,-1.629 6.958,-4.844l0.081,-0.381l-3.028,0l-0.058,0.242c-0.423,1.732 -1.348,2.346 -3.539,2.346c-1.36,0 -2.226,-0.249 -2.724,-0.781c-0.534,-0.572 -0.733,-1.534 -0.635,-3.102l10.2,0l0.032,-0.282c0.375,-3.34 0.005,-5.494 -1.161,-6.781c-0.927,-1.022 -2.363,-1.518 -4.392,-1.518z" clip-rule="evenodd" fill-rule="evenodd" opacity="0.95"/>
   <path id="svg_22" fill="white" d="m141.476,158.06c-1.406,0 -2.433,0.39 -3.348,1.31l0.111,-0.991l-2.839,0l-1.618,14.386l3,0l0.9,-8.016c0.293,-2.594 1.243,-3.653 3.281,-3.653c0.751,0 1.155,0.139 1.157,0.139l0.384,0.139l0.345,-3.074l-0.234,-0.087c-0.041,-0.017 -0.432,-0.153 -1.139,-0.153z" clip-rule="evenodd" fill-rule="evenodd" opacity="0.95"/>
   <path id="svg_23" fill="white" d="m148.31,154.68l-3,0l-1.672,14.881c-0.159,1.411 -0.032,2.199 0.442,2.721c0.436,0.478 1.141,0.692 2.288,0.692c1.057,0 2.53,-0.237 2.592,-0.247l0.24,-0.039l0.291,-2.592l-0.406,0.052c-0.504,0.065 -1.327,0.162 -1.528,0.162c-0.248,0 -0.768,0 -0.884,-0.129c-0.044,-0.047 -0.087,-0.177 -0.048,-0.523l0.978,-8.694l2.915,0l0.291,-2.585l-2.915,0l0.416,-3.699z" clip-rule="evenodd" fill-rule="evenodd" opacity="0.95"/>
   <path id="svg_24" fill="white" d="m161.816,165.496c-0.395,3.512 -1.644,4.947 -4.309,4.947c-1.168,0 -1.984,-0.273 -2.493,-0.833c-0.665,-0.732 -0.869,-2.008 -0.644,-4.017c0.395,-3.512 1.645,-4.945 4.311,-4.945c1.161,0 1.974,0.273 2.485,0.837c0.668,0.737 0.876,2.012 0.65,4.011zm3.183,-1.259l0,-0.313c-0.025,-1.818 -0.487,-3.232 -1.378,-4.216c-1.024,-1.129 -2.621,-1.701 -4.743,-1.701c-4.486,0 -7.047,2.537 -7.609,7.541c-0.301,2.681 0.107,4.597 1.249,5.856c1.01,1.111 2.603,1.676 4.737,1.676c4.522,0 7.099,-2.51 7.656,-7.461c0.052,-0.483 0.082,-0.944 0.088,-1.382z" clip-rule="evenodd" fill-rule="evenodd" opacity="0.95"/>
  </g>
  <path id="svg_25" fill="#006CB5" d="m30.4811,16.2553l-10.1212,23.5759l-6.7998,0l-5.78523,-19.8197l-0.4348,-1.4856l0.14494,0c3.36789,1.8404 6.28459,4.4064 8.53899,7.5124c0.4227,2.174 0.8575,4.2031 1.4373,6.2201l6.365,-16.148l6.6548,0.1449z"/>
  <path id="svg_26" fill="#006CB5" d="m57.958,32.3067c0,4.9157 -4.4808,8.1042 -11.2806,8.1042c-2.4929,0.0317 -4.9676,-0.428 -7.2829,-1.3527l0.8696,-5.3504l0.8696,0.4348c1.8884,0.8858 3.9532,1.3318 6.0389,1.3044c1.8721,0 3.9011,-0.7247 3.9011,-2.319c0,-1.0145 -0.8696,-1.7392 -3.3214,-2.8866c-2.4518,-1.1473 -5.6403,-3.0436 -5.6403,-6.5098c0,-4.6258 4.4809,-7.8144 10.87,-7.8144c1.9708,0.0213 3.9249,0.364 5.7853,1.0146l-0.8696,5.0606l-0.5798,-0.2899c-1.523,-0.6545 -3.1755,-0.9519 -4.8311,-0.8696c-2.4155,0 -3.7682,1.0145 -3.7682,2.0291c0,1.0145 1.3043,1.8841 3.6233,2.8865c3.9011,1.7392 5.6403,3.7683 5.4954,6.5099l0.1207,0.0483z"/>
  <path id="svg_27" fill="#006CB5" d="m75.4587,16.2553l-4.9156,0c-0.711,-0.1151 -1.4397,0.0256 -2.0567,0.3971c-0.617,0.3715 -1.0823,0.9498 -1.3131,1.632l-9.5414,21.74l6.7998,0c0,0 1.2078,-2.8986 1.2923,-3.6233l8.2491,0c0.145,0.8575 0.7247,3.4663 0.7247,3.4663l5.9302,0l-5.1693,-23.6121zm-7.9593,15.3268c1.2078,-2.8866 2.319,-5.9302 3.4664,-8.8168c0.5797,2.8866 1.3044,5.9302 1.8841,8.8168l-5.3505,0z"/>
  <path id="svg_28" fill="#006CB5" d="m33.0778,16.2554l6.5099,0l-4.0461,23.7208l-6.5099,0l4.0461,-23.7208z"/>
  <path id="svg_29" fill="#FAA841" d="m0.54024,16.1113l10.99076,0c1.3044,0 2.4155,0.4348 2.7537,1.8842l1.7392,8.237c-2.2544,-3.106 -5.1711,-5.672 -8.53894,-7.5124l-0.14493,0c-0.14493,-0.1932 -0.28987,-0.1932 -0.55558,-0.2898c-1.98446,-1.0125 -4.07995,-1.7907 -6.24421,-2.319z"/>
  <path id="svg_30" fill="#EB001B" d="m131.404,46.9956c11.421,0 20.679,-9.258 20.679,-20.6783c0,-11.4203 -9.258,-20.67826 -20.679,-20.67826c-11.42,0 -20.678,9.25796 -20.678,20.67826c0,11.4203 9.258,20.6783 20.678,20.6783z"/>
  <path id="svg_31" fill-opacity="0.9" fill="#F79E1B" d="m161.011,46.8249c11.421,0 20.679,-9.258 20.679,-20.6783c0,-11.4203 -9.258,-20.67834 -20.679,-20.67834c-11.42,0 -20.678,9.25804 -20.678,20.67834c0,11.4203 9.258,20.6783 20.678,20.6783z"/>
  <path id="svg_32" fill="black" d="m211.839,27.3405c0,-4.6875 1.39,-9.2699 3.995,-13.1674c2.604,-3.8976 6.305,-6.9354 10.636,-8.72926c4.331,-1.79386 9.096,-2.26322 13.694,-1.34872c4.597,0.91451 8.82,3.17179 12.135,6.48638c3.315,3.3146 5.572,7.5377 6.487,12.1352c0.914,4.5975 0.445,9.363 -1.349,13.6938c-1.794,4.3307 -4.832,8.0323 -8.729,10.6366c-3.898,2.6042 -8.48,3.9943 -13.168,3.9943c-6.286,0 -12.314,-2.4971 -16.759,-6.9418c-4.445,-4.4448 -6.942,-10.4732 -6.942,-16.7591z"/>
  <path id="svg_33" fill="white" d="m228.232,30.8026c-0.652,0.6405 -1.501,1.0417 -2.41,1.1385c-0.909,0.0969 -1.824,-0.1164 -2.596,-0.6051l-1.516,2.4047c1.317,0.8268 2.875,1.1843 4.42,1.0145c1.546,-0.1699 2.989,-0.8571 4.095,-1.9502l-1.993,-2.0024z"/>
  <path id="svg_34" fill="white" d="m225.5,20.9779c-1.252,-0.0161 -2.485,0.3087 -3.567,0.9396c-1.082,0.6309 -1.972,1.5441 -2.574,2.6418c-0.603,1.0977 -0.896,2.3387 -0.848,3.5901c0.049,1.2514 0.436,2.466 1.122,3.514l12.491,-5.3522c-0.352,-1.4999 -1.195,-2.8393 -2.395,-3.8056c-1.2,-0.9662 -2.689,-1.5039 -4.229,-1.5277zm-4.155,7.3451c-0.014,-0.165 -0.014,-0.3309 0,-0.4959c0.014,-0.8282 0.279,-1.6325 0.762,-2.3057c0.482,-0.6732 1.159,-1.1832 1.939,-1.4618c0.78,-0.2786 1.626,-0.3127 2.426,-0.0976c0.8,0.2151 1.515,0.669 2.05,1.3013l-7.177,3.0597z"/>
  <path id="svg_35" fill="white" d="m236.055,17.8621l0,13.3522l2.311,0.9357l-1.095,2.676l-2.292,-0.9357c-0.457,-0.1968 -0.847,-0.5218 -1.123,-0.9356c-0.312,-0.4949 -0.468,-1.0717 -0.449,-1.6562l0,-13.4364l2.648,0z"/>
  <path id="svg_36" fill="white" d="m247.451,24.2247c0.966,0.4737 1.705,1.3105 2.055,2.3274c0.351,1.0169 0.285,2.1313 -0.184,3.0996l2.564,1.2351c0.695,-1.4458 0.865,-3.0881 0.482,-4.6456c-0.383,-1.5575 -1.296,-2.9333 -2.582,-3.892c-1.286,-0.9586 -2.865,-1.4404 -4.467,-1.3628c-1.602,0.0775 -3.128,0.7096 -4.315,1.788l1.872,2.1053c0.605,-0.5615 1.368,-0.925 2.185,-1.042c0.818,-0.117 1.651,0.018 2.39,0.387z"/>
  <path id="svg_37" fill="white" d="m243.961,31.5605c-0.968,-0.4737 -1.709,-1.3121 -2.059,-2.3312c-0.351,-1.0192 -0.283,-2.1359 0.188,-3.1051l-2.564,-1.2258c-0.694,1.4468 -0.864,3.09 -0.48,4.6481c0.385,1.5581 1.299,2.934 2.586,3.8919c1.288,0.958 2.869,1.4382 4.471,1.3585c1.603,-0.0798 3.128,-0.7145 4.314,-1.7955l-1.871,-2.1052c-0.605,0.5649 -1.369,0.9313 -2.188,1.0501c-0.82,0.1187 -1.656,-0.0159 -2.397,-0.3858z"/>
  <path id="svg_38" fill="#0079BE" d="m319.077,45.8568c10.991,0 21.1,-9.0155 21.1,-20.0067c0.019,-12.0942 -10.138,-20.32324 -21.1,-20.32324l-9.505,0c-11.241,0 -20.381,8.22904 -20.381,20.32324c0.063,5.3514 2.243,10.46 6.062,14.209c3.819,3.7491 8.967,5.8335 14.319,5.7977l9.505,0z"/>
  <path id="svg_39" fill="white" d="m309.697,7.08058c-3.666,-0.0019 -7.25,1.08348 -10.299,3.11882c-3.048,2.0353 -5.425,4.9292 -6.828,8.3155c-1.404,3.3862 -1.772,7.1127 -1.057,10.708c0.714,3.5953 2.479,6.8979 5.071,9.4899c2.592,2.592 5.895,4.3569 9.49,5.0716c3.596,0.7147 7.322,0.3469 10.708,-1.0567c3.387,-1.4037 6.28,-3.7802 8.316,-6.8289c2.035,-3.0486 3.121,-6.6325 3.119,-10.2981c0.002,-2.4328 -0.475,-4.8422 -1.405,-7.0903c-0.93,-2.2481 -2.294,-4.2908 -4.014,-6.011c-1.72,-1.7203 -3.763,-3.08438 -6.011,-4.0142c-2.248,-0.92983 -4.658,-1.40715 -7.09,-1.40462z"/>
  <path id="svg_40" fill="#0079BE" d="m297.967,25.6007c0.005,-2.3753 0.726,-4.6941 2.069,-6.6533c1.343,-1.9592 3.246,-3.4676 5.46,-4.3283l0,21.8481c-2.219,-0.818 -4.133,-2.3 -5.48,-4.2444c-1.347,-1.9444 -2.062,-4.2566 -2.049,-6.6221z"/>
  <path id="svg_41" fill="#0079BE" d="m313.888,36.5919l0,-21.8481c2.222,0.8485 4.132,2.3543 5.475,4.3164c1.344,1.9621 2.057,4.2872 2.045,6.6652c-0.05,2.3516 -0.792,4.6364 -2.132,6.569c-1.341,1.9326 -3.222,3.4273 -5.407,4.2975l0.019,0z"/>
  <path id="svg_42" fill="#00622A" d="m625.484,7.76697l0,11.61383c1.822,-1.055 4.229,-1.6485 7.583,-1.055c10.567,1.8298 18.744,6.149 29.385,-2.8767c-0.099,0.2885 -2.398,8.8278 -13.823,10.4599c-9.701,1.4425 -14.952,-2.7778 -23.145,-1.1457l0,2.4728c11.911,2.3986 21.703,6.5281 33.993,-3.94c0,0 -2.786,10.8473 -16.997,12.9656c-6.915,1.0551 -12.001,-0.2884 -16.996,-1.1539l0,4.7972c0,0.9684 0.385,1.8972 1.07,2.582c0.684,0.6848 1.613,1.0695 2.582,1.0695l32.146,0c0.968,0 1.897,-0.3847 2.582,-1.0695c0.685,-0.6848 1.069,-1.6136 1.069,-2.582l0,-32.14627c0,-0.96844 -0.384,-1.89721 -1.069,-2.58199c-0.685,-0.68479 -1.614,-1.0695 -2.582,-1.0695l-32.245,0c-0.943,0.05341 -1.832,0.45927 -2.49,1.13713c-0.658,0.67787 -1.038,1.57823 -1.063,2.5226zm28.619,9.98183c-7.971,1.1539 -11.623,-3.1652 -19.494,0.2885c0,0 1.343,-6.8167 8.638,-5.5638c7.295,1.2529 13.056,4.3191 20.45,-2.0194c0,0 -1.533,6.05 -9.594,7.2947z"/>
  <path id="svg_43" fill="#4F4F4F" d="m704.319,3.97949l-6.642,0l0,40.32101l6.642,0l0,-40.32101z"/>
  <path id="svg_44" fill="#4F4F4F" d="m730.337,4.159l-6.642,0l0,40.321l6.642,0l0,-40.321z"/>
  <path id="svg_45" fill="#4F4F4F" d="m709.179,3.97949l-3.385,0l0,40.32101l3.385,0l0,-40.32101z"/>
  <path id="svg_46" fill="#4F4F4F" d="m712.364,3.97949l-1.517,0l0,40.32101l1.517,0l0,-40.32101z"/>
  <path id="svg_47" fill="#4F4F4F" d="m733.522,4.06927l-1.517,0l0,40.32103l1.517,0l0,-40.32103z"/>
  <path id="svg_48" fill="#4F4F4F" d="m737.566,4.159l-1.517,0l0,40.321l1.517,0l0,-40.321z"/>
  <path id="svg_49" fill="#4F4F4F" d="m714.766,3.97949l-1.517,0l0,40.32101l1.517,0l0,-40.32101z"/>
  <path id="svg_50" fill="#4F4F4F" d="m720.538,3.97949l-3.246,0l0,40.32101l3.246,0l0,-40.32101z"/>
  <path id="svg_51" fill="#4F4F4F" d="m743.377,4.159l-3.246,0l0,40.321l3.246,0l0,-40.321z"/>
  <path id="svg_52" fill="#4F4F4F" d="m707.487,56.3993l0,-6.9946l2.513,0c0.9,0 1.583,0.1649 2.051,0.4948c0.471,0.3299 0.706,0.8086 0.706,1.4364c0,0.3619 -0.083,0.6709 -0.25,0.9272c-0.166,0.2562 -0.411,0.4451 -0.735,0.5668c0.365,0.0961 0.646,0.2755 0.841,0.5381c0.195,0.2626 0.293,0.5829 0.293,0.9608c0,0.6853 -0.218,1.201 -0.653,1.5469c-0.433,0.3427 -1.075,0.5172 -1.927,0.5236l-2.839,0zm1.686,-2.9737l0,1.6766l1.105,0c0.305,0 0.538,-0.0688 0.702,-0.2066c0.163,-0.1409 0.245,-0.3378 0.245,-0.5909c0,-0.5828 -0.29,-0.8759 -0.87,-0.8791l-1.182,0zm0,-1.1049l0.879,0c0.369,-0.0032 0.631,-0.0705 0.788,-0.2018c0.157,-0.1313 0.236,-0.325 0.236,-0.5813c0,-0.2946 -0.085,-0.506 -0.255,-0.6341c-0.17,-0.1313 -0.443,-0.197 -0.821,-0.197l-0.827,0l0,1.6142z"/>
  <path id="svg_53" fill="#4F4F4F" d="m713.559,53.7524c0,-0.5189 0.101,-0.9801 0.303,-1.3836c0.202,-0.4067 0.491,-0.719 0.869,-0.9368c0.378,-0.2178 0.822,-0.3267 1.331,-0.3267c0.778,0 1.392,0.2419 1.84,0.7255c0.448,0.4804 0.673,1.1353 0.673,1.9648l0,0.0576c0,0.8103 -0.226,1.454 -0.678,1.9312c-0.448,0.474 -1.057,0.711 -1.825,0.711c-0.74,0 -1.334,-0.2209 -1.783,-0.6629c-0.448,-0.4452 -0.69,-1.0473 -0.725,-1.8063l-0.005,-0.2738zm1.619,0.1008c0,0.4804 0.075,0.8327 0.226,1.0569c0.15,0.2242 0.373,0.3363 0.668,0.3363c0.576,0 0.871,-0.4436 0.884,-1.3307l0,-0.1633c0,-0.932 -0.298,-1.398 -0.894,-1.398c-0.541,0 -0.834,0.4019 -0.879,1.2058l-0.005,0.293z"/>
  <path id="svg_54" fill="#4F4F4F" d="m720.996,56.3993l-1.624,0l0,-7.3789l1.624,0l0,7.3789z"/>
  <path id="svg_55" fill="#4F4F4F" d="m724.512,56.4954c-0.797,0 -1.443,-0.237 -1.936,-0.711c-0.493,-0.4772 -0.74,-1.0969 -0.74,-1.8591l0,-0.1345c0,-0.5317 0.098,-1.0008 0.293,-1.4076c0.199,-0.4067 0.487,-0.7206 0.865,-0.9416c0.378,-0.2242 0.826,-0.3363 1.345,-0.3363c0.73,0 1.307,0.2274 1.729,0.6822c0.423,0.4516 0.635,1.0825 0.635,1.8928l0,0.6293l-3.219,0c0.058,0.2915 0.184,0.5205 0.379,0.687c0.196,0.1665 0.449,0.2498 0.759,0.2498c0.513,0 0.913,-0.1793 1.201,-0.538l0.74,0.8743c-0.201,0.2786 -0.488,0.5012 -0.86,0.6677c-0.368,0.1634 -0.765,0.245 -1.191,0.245zm-0.183,-4.141c-0.474,0 -0.755,0.3138 -0.845,0.9416l1.633,0l0,-0.1249c0.007,-0.2594 -0.059,-0.4596 -0.197,-0.6005c-0.137,-0.1442 -0.334,-0.2162 -0.591,-0.2162z"/>
  <path id="svg_56" fill="#4F4F4F" d="m729.244,49.9091l0,1.2922l0.855,0l0,1.1242l-0.855,0l0,2.378c0,0.1953 0.035,0.3314 0.106,0.4083c0.07,0.0769 0.209,0.1153 0.418,0.1153c0.16,0 0.294,-0.0096 0.403,-0.0288l0,1.1577c-0.291,0.0929 -0.596,0.1394 -0.913,0.1394c-0.557,0 -0.968,-0.1314 -1.234,-0.394c-0.266,-0.2626 -0.399,-0.6613 -0.399,-1.1962l0,-2.5797l-0.663,0l0,-1.1242l0.663,0l0,-1.2922l1.619,0z"/>
  <path id="svg_57" fill="#4F4F4F" d="m730.392,53.7524c0,-0.5189 0.101,-0.9801 0.303,-1.3836c0.202,-0.4067 0.491,-0.719 0.869,-0.9368c0.378,-0.2178 0.822,-0.3267 1.331,-0.3267c0.778,0 1.392,0.2419 1.84,0.7255c0.448,0.4804 0.673,1.1353 0.673,1.9648l0,0.0576c0,0.8103 -0.226,1.454 -0.678,1.9312c-0.448,0.474 -1.057,0.711 -1.825,0.711c-0.74,0 -1.334,-0.2209 -1.783,-0.6629c-0.448,-0.4452 -0.69,-1.0473 -0.725,-1.8063l-0.005,-0.2738zm1.619,0.1008c0,0.4804 0.075,0.8327 0.226,1.0569c0.15,0.2242 0.373,0.3363 0.668,0.3363c0.576,0 0.871,-0.4436 0.884,-1.3307l0,-0.1633c0,-0.932 -0.298,-1.398 -0.894,-1.398c-0.541,0 -0.834,0.4019 -0.879,1.2058l-0.005,0.293z"/>
  <path id="svg_58" fill="#2687E9" d="m0.99895,83.8208c0,-3.4834 2.81214,-6.3126 6.28788,-6.3126l48.68687,0c3.4758,0 6.288,2.8292 6.288,6.3126l0,29.3422c0,3.483 -2.8122,6.313 -6.288,6.313l-48.68687,0c-3.46292,0 -6.28788,-2.843 -6.28788,-6.313l0,-29.3422zm6.28788,-4.8655c-2.67046,0 -4.84073,2.1753 -4.84073,4.8655l0,29.3422c0,2.677 2.1831,4.865 4.84073,4.865l48.68687,0c2.6706,0 4.8408,-2.175 4.8408,-4.865l0,-29.3422c0,-2.6902 -2.1702,-4.8655 -4.8408,-4.8655l-48.68687,0z" clip-rule="evenodd" fill-rule="evenodd"/>
  <path id="svg_59" fill="#2687E9" d="m18.4152,109.695l-8.3463,0l0,-1.448l8.3463,0l0,1.448z" clip-rule="evenodd" fill-rule="evenodd"/>
  <path id="svg_60" fill="#2687E9" d="m29.5437,109.695l-6.9553,0l0,-1.448l6.9553,0l0,1.448z" clip-rule="evenodd" fill-rule="evenodd"/>
  <path id="svg_61" fill="#2687E9" d="m42.0631,109.695l-8.3463,0l0,-1.448l8.3463,0l0,1.448z" clip-rule="evenodd" fill-rule="evenodd"/>
  <path id="svg_62" fill="#2687E9" d="m54.5827,109.695l-8.3463,0l0,-1.448l8.3463,0l0,1.448z" clip-rule="evenodd" fill-rule="evenodd"/>
  <path id="svg_63" fill="#2687E9" d="m54.5828,91.5057c0,2.701 -2.1798,4.8904 -4.8688,4.8904l-1.391,0c-2.6888,0 -4.8688,-2.1894 -4.8688,-4.8904c0,-2.7008 2.1798,-4.8905 4.8688,-4.8905l1.391,0c2.689,0 4.8688,2.1895 4.8688,4.8905z"/>
  <path id="svg_64" fill="white" d="m48.3231,87.3386c-2.2864,0 -4.1453,1.8627 -4.1453,4.1669c0,2.3044 1.8591,4.1669 4.1453,4.1669l1.391,0c2.2863,0 4.1452,-1.8625 4.1452,-4.1669c0,-2.3044 -1.8589,-4.1669 -4.1452,-4.1669l-1.391,0zm-5.5924,4.1669c0,-3.0973 2.5007,-5.614 5.5924,-5.614l1.391,0c3.0917,0 5.5924,2.5164 5.5924,5.614c0,3.0975 -2.5007,5.614 -5.5924,5.614l-1.391,0c-3.0914,0 -5.5924,-2.5164 -5.5924,-5.614z" clip-rule="evenodd" fill-rule="evenodd"/>
  <path id="svg_65" fill="#2687E9" d="m212.443,77.5081l0,42.6049l-1.732,0l0,-42.6049l1.732,0zm19.912,0l0,42.6049l-1.731,0l0,-42.6049l1.731,0zm4.329,0l0,42.6049l-1.732,0l0,-42.6049l1.732,0zm-26.838,0l0,42.6049l-1.732,0l0,-42.6049l1.732,0zm19.046,0l0,42.6049l-6.926,0l0,-42.6049l6.926,0zm-10.389,0l0,42.6049l-3.463,0l0,-42.6049l3.463,0zm-12.12,0l0,42.6049l-3.463,0l0,-42.6049l3.463,0zm36.361,0l0,42.6049l-3.463,0l0,-42.6049l3.463,0zm-41.556,0l0,42.6049l-6.926,0l0,-42.6049l6.926,0z"/>
  <path id="svg_66" fill="#2687E9" d="m92.0776,83.9285c0,-3.4834 2.8121,-6.3127 6.2879,-6.3127l48.6865,0c3.476,0 6.288,2.8293 6.288,6.3127l0,29.3425c0,3.483 -2.812,6.312 -6.288,6.312l-48.6865,0c-3.4629,0 -6.2879,-2.842 -6.2879,-6.312l0,-29.3425zm6.2879,-4.8655c-2.6705,0 -4.8408,2.1753 -4.8408,4.8655l0,29.3425c0,2.677 2.1831,4.865 4.8408,4.865l48.6865,0c2.671,0 4.841,-2.175 4.841,-4.865l0,-29.3425c0,-2.6902 -2.17,-4.8655 -4.841,-4.8655l-48.6865,0z" clip-rule="evenodd" fill-rule="evenodd"/>
  <path id="svg_67" fill="#2687E9" d="m109.494,109.802l-8.347,0l0,-1.447l8.347,0l0,1.447z" clip-rule="evenodd" fill-rule="evenodd"/>
  <path id="svg_68" fill="#2687E9" d="m120.623,109.802l-6.956,0l0,-1.447l6.956,0l0,1.447z" clip-rule="evenodd" fill-rule="evenodd"/>
  <path id="svg_69" fill="#2687E9" d="m133.142,109.802l-8.347,0l0,-1.447l8.347,0l0,1.447z" clip-rule="evenodd" fill-rule="evenodd"/>
  <path id="svg_70" fill="#2687E9" d="m145.662,109.802l-8.347,0l0,-1.447l8.347,0l0,1.447z" clip-rule="evenodd" fill-rule="evenodd"/>
  <path id="svg_71" fill="white" d="m145.662,91.6135c0,2.7009 -2.18,4.8904 -4.869,4.8904l-1.391,0c-2.689,0 -4.869,-2.1895 -4.869,-4.8904c0,-2.7008 2.18,-4.8905 4.869,-4.8905l1.391,0c2.689,0 4.869,2.1895 4.869,4.8905z"/>
  <path id="svg_72" fill="#2687E9" d="m139.402,87.4463c-2.287,0 -4.146,1.8627 -4.146,4.1669c0,2.3043 1.859,4.1668 4.146,4.1668l1.391,0c2.286,0 4.145,-1.8624 4.145,-4.1668c0,-2.3044 -1.859,-4.1669 -4.145,-4.1669l-1.391,0zm-5.593,4.1669c0,-3.0973 2.501,-5.6141 5.593,-5.6141l1.391,0c3.091,0 5.592,2.5165 5.592,5.6141c0,3.0975 -2.501,5.6139 -5.592,5.6139l-1.391,0c-3.092,0 -5.593,-2.5163 -5.593,-5.6139z" clip-rule="evenodd" fill-rule="evenodd"/>
  <path id="svg_73" fill="#2687E9" d="m297.048,95.5397l-20.587,0l9.45,-9.45l-2.363,-2.3625l-13.5,13.5l13.5,13.4998l2.363,-2.362l-9.45,-9.4503l20.587,0l0,-3.375z" clip-rule="evenodd" fill-rule="evenodd"/>
  <path id="svg_74" fill="#2687E9" d="m344.362,98.9149l20.588,0l-9.45,9.4501l2.362,2.362l13.5,-13.4996l-13.5,-13.5l-2.362,2.3625l9.45,9.45l-20.588,0l0,3.375z" clip-rule="evenodd" fill-rule="evenodd"/>
  <g id="svg_75" opacity="0.9">
   <rect id="svg_76" x="443.053009" y="85.971397" fill-opacity="0" fill="black" height="21.9513" width="21.9513"/>
   <path id="svg_77" fill="#E3324C" d="m454.029,107.923c6.062,0 10.976,-4.914 10.976,-10.976c0,-6.0616 -4.914,-10.9756 -10.976,-10.9756c-6.062,0 -10.976,4.914 -10.976,10.9756c0,6.062 4.914,10.976 10.976,10.976z" opacity="0.9"/>
   <path id="svg_78" fill="white" d="m453.934,100.838c0.374,0 0.674,0.11 0.902,0.33c0.228,0.22 0.342,0.502 0.342,0.845c0,0.337 -0.114,0.616 -0.342,0.836c-0.228,0.22 -0.528,0.33 -0.902,0.33c-0.368,0 -0.667,-0.11 -0.894,-0.33c-0.228,-0.22 -0.342,-0.499 -0.342,-0.836c0,-0.338 0.114,-0.618 0.342,-0.841c0.228,-0.222 0.526,-0.334 0.894,-0.334zm0.921,-1.2126l-1.842,0l-0.261,-7.7455l2.364,0l-0.261,7.7455z" opacity="0.9"/>
  </g>
  <path id="svg_79" fill="#A6E8CA" d="m505.27,107.89c6.122,0 11.085,-4.963 11.085,-11.0852c0,-6.122 -4.963,-11.085 -11.085,-11.085c-6.122,0 -11.085,4.963 -11.085,11.085c0,6.1222 4.963,11.0852 11.085,11.0852z"/>
  <path id="svg_80" fill="#26C281" d="m505.691,101.229c-0.268,0.301 -0.734,0.328 -1.035,0.061l-4.6,-4.0966c-0.301,-0.2678 -0.328,-0.7334 -0.06,-1.0349c0.267,-0.3006 0.733,-0.3281 1.034,-0.0603l4.6,4.0958c0.302,0.268 0.329,0.734 0.061,1.035z"/>
  <path id="svg_81" fill="#26C281" d="m505.103,100.937c-0.331,-0.229 -0.414,-0.689 -0.183,-1.0193l4.837,-6.9623c0.23,-0.3308 0.689,-0.4132 1.02,-0.1836c0.331,0.2297 0.413,0.6891 0.184,1.0199l-4.838,6.9623c-0.23,0.331 -0.689,0.413 -1.02,0.183z"/>
  <g stroke="null" id="svg_82">
   <path stroke="null" id="svg_83" fill="#B82126" d="m409.255893,5l-9.535027,0c-4.212987,0.1992 -7.656809,1.896097 -8.65118,5.395361c-0.518497,1.824942 -0.803843,3.829218 -1.209284,5.72098c-2.061163,9.619186 -3.888815,19.503128 -5.860402,28.930158l74.232597,0c5.738859,0 9.679144,-1.212715 10.74413,-5.767394c0.494656,-2.115885 0.968546,-4.5126 1.441893,-6.837257c1.844988,-9.063847 3.691601,-18.127151 5.581378,-27.441849l-66.744105,0"/>
   <path stroke="null" id="svg_84" fill="#FFFFFF" d="m447.555403,28.925953c-1.029498,1.007851 -3.919381,1.294133 -3.623718,-1.115004c0.245514,-2.00091 2.42393,-2.426094 4.785083,-2.137106c-0.175522,1.094439 -0.376841,2.484181 -1.161365,3.25211zm-3.25211,-7.805028c-0.098314,0.552 -0.249302,1.051506 -0.371608,1.579514c1.178863,-0.295482 4.849663,-1.201772 5.203412,0.371608c0.117435,0.522776 -0.085145,1.078204 -0.232345,1.486792c-3.319576,-0.314423 -6.025098,0.237037 -6.736565,2.601616c-0.476596,1.583843 0.053396,3.142431 1.068643,3.577537c1.955271,0.837561 4.333561,-0.121945 5.156871,-1.440251c-0.085506,0.456392 -0.166502,0.917294 -0.139443,1.486612l1.718957,0c0.018219,-1.646259 0.25778,-2.978816 0.511051,-4.460196c0.215929,-1.261483 0.621992,-2.510337 0.55741,-3.623718c-0.147559,-2.549843 -4.371804,-1.647882 -6.736384,-1.579514zm17.23611,8.594785c-1.344824,0.028861 -2.013537,-0.803467 -2.044204,-2.183467c-0.053576,-2.416894 1.006588,-5.102031 3.159208,-5.342855c1.002259,-0.112023 1.727976,0.121043 2.462353,0.371788c-0.674126,2.714722 -0.430777,7.087067 -3.577357,7.154534zm4.460016,-12.776094c-0.171192,1.501223 -0.40011,2.944902 -0.696675,4.320571c-4.900353,-1.551012 -7.905686,2.054306 -7.851749,6.50422c0.010643,0.860651 0.158745,1.714086 0.697035,2.32291c0.927577,1.049159 3.583671,1.300086 4.924526,0.418329c0.259765,-0.170651 0.524941,-0.481286 0.697035,-0.696855c0.129161,-0.162353 0.334447,-0.586996 0.371428,-0.46487c-0.070353,0.471725 -0.175702,0.908453 -0.185624,1.440431l1.811859,0c0.349059,-5.00913 1.428886,-9.287671 2.230008,-13.844737l-1.997843,0zm-51.150917,12.032877c-1.068824,1.131961 -3.696416,1.114643 -3.902424,-0.789937c-0.089835,-0.828722 0.218996,-1.697671 0.371608,-2.555075c0.154416,-0.867865 0.265537,-1.700557 0.417969,-2.462533c1.052767,-1.285474 4.146314,-1.440612 4.460196,0.697035c0.272392,1.855875 -0.462165,4.173012 -1.347349,5.11051zm1.579694,-7.851569c-1.690816,-0.635159 -3.751616,0.123028 -4.644918,0.844237c0.003067,0.031749 -0.021286,0.036078 -0.047623,0.038423c0.015333,-0.012808 0.031749,-0.025614 0.047623,-0.038423c-0.00018,-0.002706 -0.000359,-0.005051 -0.001082,-0.007937c0.015153,-0.310275 0.12429,-0.526204 0.139443,-0.8363l-1.718957,0c-0.716337,4.765781 -1.565804,9.398253 -2.462353,13.984002l1.997663,0c0.289169,-1.786063 0.480204,-3.670079 0.882839,-5.342675c0.456212,1.759184 3.435208,1.422933 4.692181,0.743396c2.593859,-1.402549 4.594408,-8.07778 1.115184,-9.384722zm9.477443,3.345012l-4.69218,0c0.148463,-1.078745 1.118972,-2.264461 2.647976,-2.32291c1.439169,-0.055019 2.469569,0.528369 2.044204,2.32291zm-1.904761,-3.530814c-1.443498,0.111121 -2.663669,0.526563 -3.530814,1.44007c-1.063592,1.120596 -1.924965,3.597922 -1.672596,5.853906c0.360061,3.218557 4.367474,3.103106 7.572861,2.32291c0.054479,-0.564808 0.191216,-1.047718 0.278706,-1.579514c-1.32047,0.494094 -3.613074,1.183735 -4.971065,0.325247c-1.025349,-0.648329 -1.031302,-2.290078 -0.696855,-3.7168c2.154243,-0.068549 4.393269,-0.05538 6.55058,0c0.136918,-1.011278 0.528549,-2.113835 0.185804,-3.112665c-0.452063,-1.318667 -2.07,-1.659969 -3.71662,-1.533153zm-17.561355,0.185802c-0.054118,0.007757 -0.05051,0.07342 -0.046543,0.139263c-0.440155,3.291977 -1.03581,6.428636 -1.672414,9.524165l1.997663,0c0.480023,-3.314165 1.029857,-6.558337 1.718955,-9.663428l-1.997661,0zm52.126656,0.046361c-1.765678,-0.882659 -3.235512,0.598541 -3.80952,1.486612c0.163435,-0.455671 0.172816,-1.065757 0.325067,-1.532973l-1.765498,0c-0.475875,3.318134 -1.049883,6.538314 -1.718957,9.663428l2.044204,0c0.012988,-1.280784 0.264453,-2.228204 0.464508,-3.484455c0.427349,-2.68189 1.054392,-5.623184 4.181492,-4.738722c0.103725,-0.453686 0.146839,-0.968163 0.278704,-1.39389zm-22.439702,7.340518c-0.184,-0.475694 -0.231804,-1.261302 -0.185802,-1.8584c0.103363,-1.342478 0.592406,-2.976831 1.347349,-3.71662c1.041763,-1.0212 3.098414,-0.852172 4.73872,-0.278886c0.050871,-0.552902 0.161992,-1.045914 0.232345,-1.579333c-2.690367,-0.439437 -5.243459,-0.166141 -6.59712,1.254265c-1.324981,1.390463 -2.193749,4.586292 -1.579694,6.597122c0.718861,2.353035 3.941388,2.480933 6.550941,1.579694c0.11527,-0.472988 0.176423,-1.000275 0.278706,-1.486792c-1.42582,0.74087 -4.151726,1.125827 -4.785445,-0.511051zm-1.114823,-7.386879c-1.771451,-0.715435 -3.163898,0.493553 -3.809522,1.626055c0.146298,-0.503835 0.20673,-1.093898 0.325067,-1.626055l-1.765498,0c-0.431498,3.347177 -1.067741,6.489608 -1.672416,9.663428l1.997843,0c0.279969,-1.884016 0.400832,-4.423396 1.021922,-6.225514c0.496439,-1.44007 1.795623,-2.666916 3.670259,-1.997663c0.026337,-0.531253 0.178408,-0.936776 0.232345,-1.440251zm-32.19585,-3.902602c-0.285381,1.851725 -0.606839,3.667371 -0.9292,5.482116c-2.069639,0.021828 -4.182753,0.102284 -6.178973,-0.046541c0.37702,-1.775239 0.647428,-3.657451 1.021922,-5.435576l-2.229828,0c-0.798414,4.529104 -1.524494,9.130188 -2.41581,13.56603l2.276367,0c0.357177,-2.275647 0.691084,-4.574384 1.161365,-6.736565c1.94102,-0.047804 4.267357,-0.131145 6.132612,0.046541c-0.384596,2.248047 -0.849286,4.41582 -1.207906,6.690024l2.276549,0c0.73131,-4.595851 1.502125,-9.152377 2.415812,-13.56603l-2.32291,0zm5.66792,2.044202c0.398306,-0.274196 0.911161,-1.523951 0.325249,-2.044202c-0.185624,-0.164698 -0.496259,-0.212502 -0.9292,-0.139263c-0.401735,0.067827 -0.632816,0.204204 -0.789757,0.417967c-0.252549,0.343828 -0.483812,1.380361 -0.093084,1.765498c0.380628,0.375037 1.233341,0.174441 1.486792,0l0,0z"/>
  </g>
 </g>
</svg>